<svg width="500" height="500" viewBox="0 0 500 500" fill="none" xmlns="http://www.w3.org/2000/svg">
<rect width="500" height="500" rx="80" fill="#4B5563"/>
<path d="M82.8555 326V171.312H124.779C136.029 171.312 144.203 174.066 149.301 179.574C154.457 185.023 157.035 194.047 157.035 206.645V213.412C157.035 220.678 155.717 226.566 153.08 231.078C150.502 235.59 146.547 238.549 141.215 239.955C148.188 241.713 152.846 245.844 155.189 252.348C157.592 258.793 158.793 266.674 158.793 275.99C158.793 286.01 157.855 294.77 155.98 302.27C154.105 309.77 150.707 315.6 145.785 319.76C140.863 323.92 133.861 326 124.779 326H82.8555ZM113.09 229.584H119.418C122.289 229.584 124.135 228.471 124.955 226.244C125.775 224.018 126.186 221.352 126.186 218.246V202.689C126.186 197.709 123.988 195.219 119.594 195.219H113.09V229.584ZM116.166 298.754C124.193 298.754 128.207 294.945 128.207 287.328V267.992C128.207 263.598 127.533 260.141 126.186 257.621C124.896 255.043 122.436 253.754 118.803 253.754H113.09V298.578C114.379 298.695 115.404 298.754 116.166 298.754ZM205.902 327.406C193.539 327.406 184.076 323.686 177.514 316.244C171.01 308.744 167.758 297.934 167.758 283.812V210.336C167.758 197.094 170.98 187.045 177.426 180.189C183.93 173.334 193.422 169.906 205.902 169.906C218.383 169.906 227.846 173.334 234.291 180.189C240.795 187.045 244.047 197.094 244.047 210.336V283.812C244.047 297.934 240.766 308.744 234.203 316.244C227.699 323.686 218.266 327.406 205.902 327.406ZM206.166 298.93C210.854 298.93 213.197 294.389 213.197 285.307V209.809C213.197 202.191 210.912 198.383 206.342 198.383C201.186 198.383 198.607 202.279 198.607 210.072V285.482C198.607 290.287 199.193 293.744 200.365 295.854C201.537 297.904 203.471 298.93 206.166 298.93ZM256.527 326V171.312H298.451C309.701 171.312 317.875 174.066 322.973 179.574C328.129 185.023 330.707 194.047 330.707 206.645V213.412C330.707 220.678 329.389 226.566 326.752 231.078C324.174 235.59 320.219 238.549 314.887 239.955C321.859 241.713 326.518 245.844 328.861 252.348C331.264 258.793 332.465 266.674 332.465 275.99C332.465 286.01 331.527 294.77 329.652 302.27C327.777 309.77 324.379 315.6 319.457 319.76C314.535 323.92 307.533 326 298.451 326H256.527ZM286.762 229.584H293.09C295.961 229.584 297.807 228.471 298.627 226.244C299.447 224.018 299.857 221.352 299.857 218.246V202.689C299.857 197.709 297.66 195.219 293.266 195.219H286.762V229.584ZM289.838 298.754C297.865 298.754 301.879 294.945 301.879 287.328V267.992C301.879 263.598 301.205 260.141 299.857 257.621C298.568 255.043 296.107 253.754 292.475 253.754H286.762V298.578C288.051 298.695 289.076 298.754 289.838 298.754ZM379.574 327.406C367.211 327.406 357.748 323.686 351.186 316.244C344.682 308.744 341.43 297.934 341.43 283.812V210.336C341.43 197.094 344.652 187.045 351.098 180.189C357.602 173.334 367.094 169.906 379.574 169.906C392.055 169.906 401.518 173.334 407.963 180.189C414.467 187.045 417.719 197.094 417.719 210.336V283.812C417.719 297.934 414.438 308.744 407.875 316.244C401.371 323.686 391.938 327.406 379.574 327.406ZM379.838 298.93C384.525 298.93 386.869 294.389 386.869 285.307V209.809C386.869 202.191 384.584 198.383 380.014 198.383C374.857 198.383 372.279 202.279 372.279 210.072V285.482C372.279 290.287 372.865 293.744 374.037 295.854C375.209 297.904 377.143 298.93 379.838 298.93Z" fill="white"/>
</svg>
