<svg width="24" height="24" viewBox="0 0 24 24" fill="none" xmlns="http://www.w3.org/2000/svg">
<path d="M5.64195 5.64828V17.1862H13.0307V18.8345H4.82097C4.36757 18.8345 4 18.4655 4 18.0104V4.82414C4 4.36898 4.36757 4 4.82097 4H19.5985C20.0519 4 20.4195 4.36898 20.4195 4.82414V8.94483H18.7775V5.64828H5.64195ZM18.5371 10.8345L17.9566 10.2518L17.3761 10.8345L14.9131 13.3069L16.0742 14.4724L17.9566 12.5827L19.839 14.4724L21 13.3069L18.5371 10.8345ZM16.0742 15.7793L17.9566 17.669L19.839 15.7793L21 16.9448L18.5371 19.4173L17.9566 20L17.3761 19.4173L14.9131 16.9448L16.0742 15.7793Z" fill="white"/>
</svg>
