<svg width="281" height="272" viewBox="0 0 281 272" fill="none" xmlns="http://www.w3.org/2000/svg">
<path d="M199.101 81.3715C207.117 85.4363 215.592 86.6712 222.805 85.4036C230.017 84.136 235.935 80.3759 238.928 74.4733C241.921 68.5707 241.457 61.575 238.218 55.0076C234.979 48.4401 228.974 42.3326 220.958 38.2678C212.942 34.2031 204.466 32.9681 197.254 34.2358C190.042 35.5034 184.124 39.2635 181.131 45.1661C178.138 51.0687 178.602 58.0643 181.841 64.6317C185.08 71.1993 191.085 77.3068 199.101 81.3715Z" fill="#DD510E" stroke="#DB7517"/>
<path d="M201.589 76.7528C209.605 80.8175 218.081 82.0525 225.293 80.7848C232.505 79.5172 238.423 75.7571 241.416 69.8545C244.409 63.9519 243.946 56.9562 240.706 50.3889C237.467 43.8213 231.462 37.7138 223.446 33.6491C215.43 29.5843 206.955 28.3493 199.742 29.617C192.53 30.8846 186.613 34.6447 183.619 40.5473C180.626 46.4499 181.09 53.4456 184.329 60.013C187.569 66.5805 193.573 72.688 201.589 76.7528Z" fill="#FFB232" stroke="#DB7517"/>
<g filter="url(#filter0_i_3175_1984)">
<ellipse cx="21.9968" cy="29.4532" rx="21.9968" ry="29.4532" transform="matrix(-0.452256 0.891888 0.891888 0.452256 195.871 22.8315)" fill="#FFB824"/>
</g>
<path d="M202.47 74.9433C209.637 78.5777 217.209 79.689 223.647 78.5694C230.085 77.4499 235.355 74.1098 238.015 68.8649C240.675 63.62 240.254 57.394 237.353 51.5391C234.452 45.684 229.081 40.2322 221.914 36.5979C214.747 32.9635 207.175 31.8522 200.737 32.9718C194.299 34.0913 189.028 37.4314 186.369 42.6763C183.709 47.9212 184.129 54.1472 187.031 60.0022C189.932 65.8573 195.303 71.309 202.47 74.9433Z" stroke="#B95F00"/>
<g filter="url(#filter1_i_3175_1984)">
<path d="M203.884 48.7155L225.053 51.6046L211.966 68.4931L203.884 48.7155Z" fill="#FFB824"/>
</g>
<path d="M212.101 67.5023L204.674 49.328L224.127 51.9829L212.101 67.5023Z" stroke="#B95F00"/>
<path d="M96.3504 176.944C101.756 179.685 107.466 180.515 112.318 179.662C117.169 178.809 121.13 176.284 123.131 172.339C125.132 168.393 124.828 163.705 122.649 159.288C120.47 154.87 116.427 150.754 111.021 148.012C105.615 145.271 99.9051 144.442 95.0535 145.294C90.202 146.147 86.2409 148.672 84.2401 152.618C82.2392 156.564 82.543 161.251 84.7219 165.669C86.901 170.087 90.9447 174.203 96.3504 176.944Z" fill="#DD510E" stroke="#DB7517"/>
<path d="M98.2684 173.09C103.674 175.831 109.384 176.661 114.236 175.808C119.087 174.955 123.048 172.43 125.049 168.485C127.05 164.539 126.746 159.851 124.567 155.434C122.388 151.016 118.345 146.9 112.939 144.158C107.533 141.417 101.823 140.588 96.9714 141.44C92.12 142.293 88.1589 144.818 86.158 148.764C84.1572 152.71 84.4609 157.397 86.6399 161.815C88.819 166.233 92.8626 170.349 98.2684 173.09Z" fill="#FFB232" stroke="#DB7517"/>
<g filter="url(#filter2_i_3175_1984)">
<ellipse cx="14.911" cy="19.9655" rx="14.911" ry="19.9655" transform="matrix(-0.452256 0.891888 0.891888 0.452256 94.3203 136.681)" fill="#FFB824"/>
</g>
<path d="M98.8663 171.863C103.697 174.312 108.795 175.058 113.121 174.306C117.448 173.553 120.97 171.313 122.745 167.813C124.519 164.313 124.245 160.148 122.296 156.213C120.346 152.278 116.732 148.606 111.901 146.157C107.071 143.707 101.973 142.961 97.6464 143.714C93.3199 144.466 89.7973 146.707 88.0227 150.206C86.248 153.706 86.5222 157.872 88.4719 161.807C90.4216 165.742 94.0357 169.413 98.8663 171.863Z" stroke="#B95F00"/>
<g filter="url(#filter3_i_3175_1984)">
<path d="M99.7497 154.228L114.1 156.186L105.229 167.634L99.7497 154.228Z" fill="#FFB824"/>
</g>
<path d="M105.364 166.644L100.54 154.84L113.174 156.565L105.364 166.644Z" stroke="#B95F00"/>
<path d="M25.0497 225.489C30.4555 228.231 36.1655 229.06 41.0171 228.208C45.8686 227.355 49.8297 224.83 51.8305 220.884C53.8314 216.938 53.5276 212.251 51.3486 207.833C49.1696 203.415 45.1259 199.299 39.7201 196.558C34.3143 193.817 28.6043 192.987 23.7527 193.84C18.9012 194.692 14.9401 197.217 12.9393 201.163C10.9384 205.109 11.2422 209.797 13.4212 214.214C15.6002 218.632 19.6439 222.748 25.0497 225.489Z" fill="#DD510E" stroke="#DB7517"/>
<path d="M27.6981 222.099C33.1039 224.84 38.8139 225.67 43.6656 224.818C48.517 223.965 52.4781 221.44 54.479 217.494C56.4798 213.548 56.1761 208.861 53.9971 204.443C51.818 200.025 47.7744 195.909 42.3686 193.168C36.9628 190.427 31.2527 189.597 26.4011 190.45C21.5497 191.302 17.5885 193.827 15.5877 197.773C13.5869 201.719 13.8906 206.407 16.0696 210.824C18.2487 215.242 22.2923 219.358 27.6981 222.099Z" fill="#FFB232" stroke="#DB7517"/>
<g filter="url(#filter4_i_3175_1984)">
<ellipse cx="14.911" cy="19.9655" rx="14.911" ry="19.9655" transform="matrix(-0.452256 0.891888 0.891888 0.452256 23.75 185.691)" fill="#FFB824"/>
</g>
<path d="M28.296 220.872C33.1265 223.322 38.2242 224.068 42.5508 223.315C46.8772 222.563 50.3999 220.323 52.1745 216.823C53.9491 213.323 53.675 209.157 51.7253 205.222C49.7756 201.287 46.1614 197.616 41.3309 195.166C36.5003 192.717 31.4026 191.971 27.0761 192.723C22.7496 193.476 19.227 195.716 17.4524 199.216C15.6777 202.716 15.9519 206.881 17.9016 210.816C19.8513 214.751 23.4654 218.423 28.296 220.872Z" stroke="#B95F00"/>
<g filter="url(#filter5_i_3175_1984)">
<path d="M29.1803 203.238L43.5303 205.196L34.6592 216.644L29.1803 203.238Z" fill="#FFB824"/>
</g>
<path d="M34.7945 215.654L29.9708 203.85L42.6047 205.574L34.7945 215.654Z" stroke="#B95F00"/>
<path d="M199.293 130.592C197.317 133.559 196.442 136.83 196.603 139.707C196.764 142.584 197.956 145.033 200.081 146.448C202.206 147.862 204.925 148.016 207.641 147.055C210.357 146.093 213.037 144.023 215.012 141.056C216.988 138.089 217.863 134.818 217.702 131.941C217.541 129.065 216.349 126.615 214.224 125.2C212.099 123.786 209.38 123.632 206.664 124.594C203.948 125.555 201.268 127.625 199.293 130.592Z" fill="#DD510E" stroke="#DB7517"/>
<path d="M201.347 132.269C199.372 135.236 198.497 138.507 198.658 141.384C198.819 144.261 200.011 146.71 202.135 148.125C204.26 149.539 206.98 149.693 209.696 148.732C212.412 147.77 215.092 145.7 217.067 142.733C219.042 139.766 219.918 136.495 219.756 133.618C219.595 130.741 218.404 128.292 216.279 126.877C214.154 125.463 211.434 125.309 208.718 126.27C206.002 127.232 203.323 129.302 201.347 132.269Z" fill="#FFB232" stroke="#DB7517"/>
<g filter="url(#filter6_i_3175_1984)">
<ellipse cx="8.86671" cy="11.8723" rx="8.86671" ry="11.8723" transform="matrix(-0.832438 -0.554118 -0.554118 0.832438 222.953 132.374)" fill="#FFB824"/>
</g>
<path d="M202.029 132.708C200.266 135.356 199.483 138.271 199.622 140.831C199.761 143.391 200.815 145.561 202.692 146.811C204.569 148.06 206.978 148.195 209.393 147.335C211.808 146.475 214.195 144.628 215.958 141.98C217.721 139.332 218.504 136.416 218.365 133.857C218.226 131.297 217.172 129.127 215.295 127.877C213.418 126.628 211.009 126.493 208.594 127.352C206.179 128.212 203.791 130.059 202.029 132.708Z" stroke="#B95F00"/>
<path d="M147.14 123.858C146.125 127.275 144.172 130.041 141.858 131.758C139.544 133.475 136.9 134.128 134.453 133.4C132.006 132.673 130.147 130.681 129.148 127.979C128.148 125.277 128.024 121.893 129.04 118.476C130.055 115.06 132.008 112.294 134.322 110.576C136.635 108.859 139.28 108.207 141.727 108.934C144.174 109.662 146.033 111.653 147.032 114.355C148.032 117.058 148.156 120.441 147.14 123.858Z" fill="#DD510E" stroke="#DB7517"/>
<path d="M144.179 122.834C143.164 126.251 141.211 129.017 138.897 130.734C136.583 132.451 133.939 133.104 131.492 132.376C129.045 131.649 127.186 129.657 126.187 126.955C125.187 124.253 125.063 120.869 126.079 117.452C127.094 114.036 129.047 111.27 131.361 109.552C133.675 107.835 136.319 107.183 138.766 107.91C141.213 108.638 143.072 110.629 144.071 113.331C145.071 116.034 145.195 119.417 144.179 122.834Z" fill="#FFB232" stroke="#DB7517"/>
<g filter="url(#filter7_i_3175_1984)">
<ellipse cx="135.385" cy="120.206" rx="8.86671" ry="11.8723" transform="rotate(16.5581 135.385 120.206)" fill="#FFB824"/>
</g>
<path d="M143.405 122.59C142.498 125.64 140.759 128.107 138.704 129.639C136.648 131.17 134.305 131.749 132.144 131.107C129.983 130.464 128.337 128.699 127.452 126.293C126.567 123.888 126.459 120.871 127.365 117.822C128.272 114.772 130.011 112.305 132.067 110.773C134.122 109.242 136.465 108.663 138.626 109.305C140.787 109.948 142.433 111.713 143.318 114.119C144.203 116.524 144.311 119.541 143.405 122.59Z" stroke="#B95F00"/>
<path d="M52.3726 264.26C49.0477 262.975 46.4461 260.808 44.9187 258.364C43.3913 255.921 42.9518 253.233 43.8719 250.852C44.7921 248.471 46.9252 246.777 49.6984 245.996C52.4719 245.215 55.8547 245.36 59.1797 246.645C62.5046 247.93 65.1061 250.097 66.6336 252.541C68.161 254.983 68.6005 257.672 67.6803 260.053C66.7602 262.434 64.6271 264.128 61.8538 264.909C59.0804 265.69 55.6976 265.545 52.3726 264.26Z" fill="#DD510E" stroke="#DB7517"/>
<path d="M53.6617 260.928C50.3367 259.643 47.7352 257.476 46.2077 255.033C44.6804 252.59 44.2409 249.901 45.161 247.52C46.0811 245.139 48.2143 243.445 50.9875 242.664C53.7609 241.883 57.1438 242.029 60.4687 243.313C63.7937 244.598 66.3952 246.766 67.9227 249.209C69.45 251.652 69.8895 254.34 68.9694 256.721C68.0493 259.102 65.9161 260.796 63.1429 261.577C60.3695 262.358 56.9866 262.213 53.6617 260.928Z" fill="#FFB232" stroke="#DB7517"/>
<g filter="url(#filter8_i_3175_1984)">
<ellipse cx="56.9797" cy="252.372" rx="8.86671" ry="11.8723" transform="rotate(111.129 56.9797 252.372)" fill="#FFB824"/>
</g>
<path d="M53.9637 260.176C50.9964 259.029 48.6754 257.099 47.3125 254.928C45.9496 252.757 45.559 250.376 46.3719 248.272C47.1847 246.169 49.075 244.669 51.5437 243.979C54.0125 243.288 57.0282 243.421 59.9956 244.567C62.9629 245.714 65.2839 247.644 66.6468 249.815C68.0097 251.987 68.4003 254.368 67.5875 256.471C66.7746 258.574 64.8843 260.074 62.4156 260.764C59.9468 261.455 56.9311 261.323 53.9637 260.176Z" stroke="#B95F00"/>
<path d="M100.76 232.47C97.6911 231.769 95.3261 230.501 93.9716 229.041C92.609 227.572 92.3202 225.977 93.171 224.582C94.0217 223.187 95.9464 222.098 98.5481 221.535C101.135 220.975 104.278 220.966 107.347 221.667C110.415 222.369 112.78 223.637 114.135 225.097C115.497 226.566 115.786 228.16 114.935 229.556C114.085 230.951 112.16 232.04 109.558 232.603C106.972 233.162 103.828 233.171 100.76 232.47Z" fill="#DD510E" stroke="#DB7517"/>
<path d="M102.119 230.578C99.0504 229.877 96.6855 228.609 95.3309 227.149C93.9683 225.68 93.6795 224.085 94.5303 222.69C95.3811 221.295 97.3057 220.206 99.9075 219.643C102.494 219.083 105.637 219.074 108.706 219.775C111.775 220.477 114.14 221.745 115.494 223.205C116.857 224.674 117.145 226.269 116.295 227.664C115.444 229.059 113.519 230.148 110.918 230.711C108.331 231.27 105.188 231.28 102.119 230.578Z" fill="#FFB232" stroke="#DB7517"/>
<g filter="url(#filter9_i_3175_1984)">
<ellipse cx="6.08803" cy="10.4405" rx="6.08803" ry="10.4405" transform="matrix(-0.520604 0.853798 -0.974867 -0.222789 118.676 222.462)" fill="#FFB824"/>
</g>
<path d="M102.419 230.105C99.6792 229.479 97.5689 228.35 96.3605 227.052C95.1437 225.746 94.8934 224.34 95.6375 223.12C96.3817 221.899 98.0758 220.938 100.393 220.439C102.695 219.944 105.498 219.937 108.237 220.563C110.977 221.189 113.087 222.319 114.296 223.616C115.513 224.922 115.763 226.329 115.019 227.549C114.275 228.769 112.581 229.731 110.263 230.23C107.962 230.725 105.159 230.732 102.419 230.105Z" stroke="#B95F00"/>
<path d="M264.058 178.878C264.425 174.772 267.405 172.73 270.609 174.131C273.813 175.532 276.216 179.928 275.848 184.033C275.48 188.139 272.501 190.182 269.297 188.781C266.093 187.38 263.69 182.983 264.058 178.878Z" fill="#FFB824" stroke="#DB7517"/>
<path d="M260.724 72.5156C260.962 69.8645 262.99 68.5786 265.197 69.5436C267.404 70.5086 269.057 73.4044 268.82 76.0555C268.582 78.7066 266.554 79.9926 264.347 79.0275C262.14 78.0625 260.487 75.1667 260.724 72.5156Z" fill="#FFB824" stroke="#DB7517"/>
<path d="M11.0818 144.692C11.3639 154.543 14.6127 163.357 19.6136 169.645C24.6144 175.933 31.343 179.671 38.6089 179.463C45.8748 179.255 52.3785 175.138 57.0115 168.575C61.6445 162.011 64.3839 153.026 64.1019 143.174C63.8199 133.322 60.571 124.508 55.5701 118.22C50.5693 111.933 43.8407 108.194 36.5748 108.402C29.3089 108.61 22.8052 112.727 18.1723 119.291C13.5392 125.854 10.7998 134.84 11.0818 144.692Z" fill="#DD510E" stroke="#DB7517"/>
<path d="M18.5584 144.712C18.8404 154.564 22.0893 163.378 27.0902 169.666C32.091 175.953 38.8196 179.691 46.0855 179.483C53.3513 179.275 59.8551 175.159 64.488 168.595C69.1211 162.032 71.8604 153.046 71.5784 143.194C71.2964 133.343 68.0475 124.528 63.0466 118.241C58.0459 111.953 51.3172 108.215 44.0514 108.423C36.7855 108.631 30.2817 112.748 25.6488 119.311C21.0158 125.875 18.2764 134.86 18.5584 144.712Z" fill="#FFB232" stroke="#DB7517"/>
<g filter="url(#filter10_i_3175_1984)">
<ellipse cx="24.0985" cy="32.2674" rx="24.0985" ry="32.2674" transform="matrix(-0.999591 0.0286131 0.0286131 0.999591 67.5156 110.995)" fill="#FFB824"/>
</g>
<path d="M20.7615 144.613C21.0136 153.423 23.9088 161.303 28.3618 166.922C32.8147 172.542 38.8009 175.877 45.2592 175.693C51.7176 175.508 57.5032 171.835 61.6273 165.97C65.7516 160.105 68.1913 152.073 67.9391 143.263C67.6869 134.453 64.7918 126.574 60.3388 120.954C55.8858 115.334 49.8997 111.999 43.4413 112.184C36.9829 112.369 31.1974 116.041 27.0732 121.906C22.949 127.771 20.5093 135.804 20.7615 144.613Z" stroke="#B95F00"/>
<g filter="url(#filter11_i_3175_1984)">
<path d="M46.7955 132.249L55.0908 154.137L31.9879 150.377L46.7955 132.249Z" fill="#FFB824"/>
</g>
<path d="M32.923 150.023L46.6349 133.237L54.3164 153.505L32.923 150.023Z" stroke="#B95F00"/>
<defs>
<filter id="filter0_i_3175_1984" x="184.095" y="32.0549" width="56.1943" height="47.4314" filterUnits="userSpaceOnUse" color-interpolation-filters="sRGB">
<feFlood flood-opacity="0" result="BackgroundImageFix"/>
<feBlend mode="normal" in="SourceGraphic" in2="BackgroundImageFix" result="shape"/>
<feColorMatrix in="SourceAlpha" type="matrix" values="0 0 0 0 0 0 0 0 0 0 0 0 0 0 0 0 0 0 127 0" result="hardAlpha"/>
<feOffset dx="5" dy="-2"/>
<feComposite in2="hardAlpha" operator="arithmetic" k2="-1" k3="1"/>
<feColorMatrix type="matrix" values="0 0 0 0 0.858824 0 0 0 0 0.459137 0 0 0 0 0.0901961 0 0 0 1 0"/>
<feBlend mode="normal" in2="shape" result="effect1_innerShadow_3175_1984"/>
</filter>
<filter id="filter1_i_3175_1984" x="203.884" y="48.7155" width="21.1689" height="19.7777" filterUnits="userSpaceOnUse" color-interpolation-filters="sRGB">
<feFlood flood-opacity="0" result="BackgroundImageFix"/>
<feBlend mode="normal" in="SourceGraphic" in2="BackgroundImageFix" result="shape"/>
<feColorMatrix in="SourceAlpha" type="matrix" values="0 0 0 0 0 0 0 0 0 0 0 0 0 0 0 0 0 0 127 0" result="hardAlpha"/>
<feOffset dx="5" dy="-2"/>
<feComposite in2="hardAlpha" operator="arithmetic" k2="-1" k3="1"/>
<feColorMatrix type="matrix" values="0 0 0 0 0.858824 0 0 0 0 0.459137 0 0 0 0 0.0901961 0 0 0 1 0"/>
<feBlend mode="normal" in2="shape" result="effect1_innerShadow_3175_1984"/>
</filter>
<filter id="filter2_i_3175_1984" x="86.3379" y="142.934" width="38.0918" height="32.1525" filterUnits="userSpaceOnUse" color-interpolation-filters="sRGB">
<feFlood flood-opacity="0" result="BackgroundImageFix"/>
<feBlend mode="normal" in="SourceGraphic" in2="BackgroundImageFix" result="shape"/>
<feColorMatrix in="SourceAlpha" type="matrix" values="0 0 0 0 0 0 0 0 0 0 0 0 0 0 0 0 0 0 127 0" result="hardAlpha"/>
<feOffset dx="5" dy="-2"/>
<feComposite in2="hardAlpha" operator="arithmetic" k2="-1" k3="1"/>
<feColorMatrix type="matrix" values="0 0 0 0 0.858824 0 0 0 0 0.459137 0 0 0 0 0.0901961 0 0 0 1 0"/>
<feBlend mode="normal" in2="shape" result="effect1_innerShadow_3175_1984"/>
</filter>
<filter id="filter3_i_3175_1984" x="99.75" y="154.228" width="14.3496" height="13.4067" filterUnits="userSpaceOnUse" color-interpolation-filters="sRGB">
<feFlood flood-opacity="0" result="BackgroundImageFix"/>
<feBlend mode="normal" in="SourceGraphic" in2="BackgroundImageFix" result="shape"/>
<feColorMatrix in="SourceAlpha" type="matrix" values="0 0 0 0 0 0 0 0 0 0 0 0 0 0 0 0 0 0 127 0" result="hardAlpha"/>
<feOffset dx="5" dy="-2"/>
<feComposite in2="hardAlpha" operator="arithmetic" k2="-1" k3="1"/>
<feColorMatrix type="matrix" values="0 0 0 0 0.858824 0 0 0 0 0.459137 0 0 0 0 0.0901961 0 0 0 1 0"/>
<feBlend mode="normal" in2="shape" result="effect1_innerShadow_3175_1984"/>
</filter>
<filter id="filter4_i_3175_1984" x="15.7676" y="191.943" width="38.0918" height="32.1525" filterUnits="userSpaceOnUse" color-interpolation-filters="sRGB">
<feFlood flood-opacity="0" result="BackgroundImageFix"/>
<feBlend mode="normal" in="SourceGraphic" in2="BackgroundImageFix" result="shape"/>
<feColorMatrix in="SourceAlpha" type="matrix" values="0 0 0 0 0 0 0 0 0 0 0 0 0 0 0 0 0 0 127 0" result="hardAlpha"/>
<feOffset dx="5" dy="-2"/>
<feComposite in2="hardAlpha" operator="arithmetic" k2="-1" k3="1"/>
<feColorMatrix type="matrix" values="0 0 0 0 0.858824 0 0 0 0 0.459137 0 0 0 0 0.0901961 0 0 0 1 0"/>
<feBlend mode="normal" in2="shape" result="effect1_innerShadow_3175_1984"/>
</filter>
<filter id="filter5_i_3175_1984" x="29.1807" y="203.238" width="14.3496" height="13.4067" filterUnits="userSpaceOnUse" color-interpolation-filters="sRGB">
<feFlood flood-opacity="0" result="BackgroundImageFix"/>
<feBlend mode="normal" in="SourceGraphic" in2="BackgroundImageFix" result="shape"/>
<feColorMatrix in="SourceAlpha" type="matrix" values="0 0 0 0 0 0 0 0 0 0 0 0 0 0 0 0 0 0 127 0" result="hardAlpha"/>
<feOffset dx="5" dy="-2"/>
<feComposite in2="hardAlpha" operator="arithmetic" k2="-1" k3="1"/>
<feColorMatrix type="matrix" values="0 0 0 0 0.858824 0 0 0 0 0.459137 0 0 0 0 0.0901961 0 0 0 1 0"/>
<feBlend mode="normal" in2="shape" result="effect1_innerShadow_3175_1984"/>
</filter>
<filter id="filter6_i_3175_1984" x="199.106" y="126.304" width="19.7744" height="22.0787" filterUnits="userSpaceOnUse" color-interpolation-filters="sRGB">
<feFlood flood-opacity="0" result="BackgroundImageFix"/>
<feBlend mode="normal" in="SourceGraphic" in2="BackgroundImageFix" result="shape"/>
<feColorMatrix in="SourceAlpha" type="matrix" values="0 0 0 0 0 0 0 0 0 0 0 0 0 0 0 0 0 0 127 0" result="hardAlpha"/>
<feOffset dx="5" dy="-2"/>
<feComposite in2="hardAlpha" operator="arithmetic" k2="-1" k3="1"/>
<feColorMatrix type="matrix" values="0 0 0 0 0.858824 0 0 0 0 0.459137 0 0 0 0 0.0901961 0 0 0 1 0"/>
<feBlend mode="normal" in2="shape" result="effect1_innerShadow_3175_1984"/>
</filter>
<filter id="filter7_i_3175_1984" x="126.235" y="108.546" width="18.2998" height="23.3193" filterUnits="userSpaceOnUse" color-interpolation-filters="sRGB">
<feFlood flood-opacity="0" result="BackgroundImageFix"/>
<feBlend mode="normal" in="SourceGraphic" in2="BackgroundImageFix" result="shape"/>
<feColorMatrix in="SourceAlpha" type="matrix" values="0 0 0 0 0 0 0 0 0 0 0 0 0 0 0 0 0 0 127 0" result="hardAlpha"/>
<feOffset dx="5" dy="-2"/>
<feComposite in2="hardAlpha" operator="arithmetic" k2="-1" k3="1"/>
<feColorMatrix type="matrix" values="0 0 0 0 0.858824 0 0 0 0 0.459137 0 0 0 0 0.0901961 0 0 0 1 0"/>
<feBlend mode="normal" in2="shape" result="effect1_innerShadow_3175_1984"/>
</filter>
<filter id="filter8_i_3175_1984" x="45.4502" y="243.057" width="23.0586" height="18.6283" filterUnits="userSpaceOnUse" color-interpolation-filters="sRGB">
<feFlood flood-opacity="0" result="BackgroundImageFix"/>
<feBlend mode="normal" in="SourceGraphic" in2="BackgroundImageFix" result="shape"/>
<feColorMatrix in="SourceAlpha" type="matrix" values="0 0 0 0 0 0 0 0 0 0 0 0 0 0 0 0 0 0 127 0" result="hardAlpha"/>
<feOffset dx="5" dy="-2"/>
<feComposite in2="hardAlpha" operator="arithmetic" k2="-1" k3="1"/>
<feColorMatrix type="matrix" values="0 0 0 0 0.858824 0 0 0 0 0.459137 0 0 0 0 0.0901961 0 0 0 1 0"/>
<feBlend mode="normal" in2="shape" result="effect1_innerShadow_3175_1984"/>
</filter>
<filter id="filter9_i_3175_1984" x="94.665" y="219.638" width="21.3262" height="11.3921" filterUnits="userSpaceOnUse" color-interpolation-filters="sRGB">
<feFlood flood-opacity="0" result="BackgroundImageFix"/>
<feBlend mode="normal" in="SourceGraphic" in2="BackgroundImageFix" result="shape"/>
<feColorMatrix in="SourceAlpha" type="matrix" values="0 0 0 0 0 0 0 0 0 0 0 0 0 0 0 0 0 0 127 0" result="hardAlpha"/>
<feOffset dx="5" dy="-2"/>
<feComposite in2="hardAlpha" operator="arithmetic" k2="-1" k3="1"/>
<feColorMatrix type="matrix" values="0 0 0 0 0.858824 0 0 0 0 0.459137 0 0 0 0 0.0901961 0 0 0 1 0"/>
<feBlend mode="normal" in2="shape" result="effect1_innerShadow_3175_1984"/>
</filter>
<filter id="filter10_i_3175_1984" x="20.2432" y="111.677" width="48.2139" height="64.5234" filterUnits="userSpaceOnUse" color-interpolation-filters="sRGB">
<feFlood flood-opacity="0" result="BackgroundImageFix"/>
<feBlend mode="normal" in="SourceGraphic" in2="BackgroundImageFix" result="shape"/>
<feColorMatrix in="SourceAlpha" type="matrix" values="0 0 0 0 0 0 0 0 0 0 0 0 0 0 0 0 0 0 127 0" result="hardAlpha"/>
<feOffset dx="5" dy="-2"/>
<feComposite in2="hardAlpha" operator="arithmetic" k2="-1" k3="1"/>
<feColorMatrix type="matrix" values="0 0 0 0 0.858824 0 0 0 0 0.459137 0 0 0 0 0.0901961 0 0 0 1 0"/>
<feBlend mode="normal" in2="shape" result="effect1_innerShadow_3175_1984"/>
</filter>
<filter id="filter11_i_3175_1984" x="31.9883" y="132.25" width="23.1025" height="21.8876" filterUnits="userSpaceOnUse" color-interpolation-filters="sRGB">
<feFlood flood-opacity="0" result="BackgroundImageFix"/>
<feBlend mode="normal" in="SourceGraphic" in2="BackgroundImageFix" result="shape"/>
<feColorMatrix in="SourceAlpha" type="matrix" values="0 0 0 0 0 0 0 0 0 0 0 0 0 0 0 0 0 0 127 0" result="hardAlpha"/>
<feOffset dx="5" dy="-2"/>
<feComposite in2="hardAlpha" operator="arithmetic" k2="-1" k3="1"/>
<feColorMatrix type="matrix" values="0 0 0 0 0.858824 0 0 0 0 0.459137 0 0 0 0 0.0901961 0 0 0 1 0"/>
<feBlend mode="normal" in2="shape" result="effect1_innerShadow_3175_1984"/>
</filter>
</defs>
</svg>
