<svg width="18" height="20" viewBox="0 0 18 20" fill="none" xmlns="http://www.w3.org/2000/svg">
<path d="M10.145 0C13.3117 0 16.1395 1.43021 18 3.67108L11.5797 10L18 16.3289C16.1395 18.5698 13.3117 20 10.145 20C4.54205 20 0 15.5228 0 10C0 4.47715 4.54205 0 10.145 0ZM10.145 2C5.66263 2 2.02899 5.58172 2.02899 10C2.02899 14.4183 5.66263 18 10.145 18C11.8931 18 13.5484 17.4531 14.9105 16.4774L15.1211 16.32L8.71036 10L15.1211 3.679L14.9105 3.52261C13.6285 2.60431 12.0869 2.06583 10.4525 2.00565L10.145 2ZM10.145 3C10.9854 3 11.6667 3.67157 11.6667 4.5C11.6667 5.32843 10.9854 6 10.145 6C9.30455 6 8.62322 5.32843 8.62322 4.5C8.62322 3.67157 9.30455 3 10.145 3Z" fill="white"/>
</svg>
