<svg width="823" height="774" viewBox="0 0 823 774" fill="none" xmlns="http://www.w3.org/2000/svg">
<path d="M443.562 570.591C438.413 566.271 425.918 567.785 423.332 569.461C433.761 601.179 417.216 633.728 407.64 646.038C411.675 648.922 422.947 653.987 434.369 647.485C445.791 640.982 449.748 612.43 450.546 597.343C451.345 582.256 448.71 574.911 443.562 570.591Z" fill="white" stroke="black"/>
<path fill-rule="evenodd" clip-rule="evenodd" d="M431.141 568.092C441.387 594.275 433.592 632.178 426.507 640.317C419.368 648.52 413.164 647.457 407.436 645.682C407.59 646.118 407.744 646.581 407.898 647.066C407.489 646.816 407.122 646.572 406.801 646.343C416.377 634.033 432.922 601.484 422.493 569.766C423.732 568.963 427.249 568.197 431.141 568.092Z" fill="#615A7A" fill-opacity="0.45"/>
<g filter="url(#filter0_i_3175_1812)">
<path d="M311.833 592.174C313.386 568.801 355.507 548.38 370.896 545.612C391.777 564.69 410.716 569.333 423.634 566.256C434.247 592.456 426.385 630.893 419.245 639.095C412.106 647.298 405.902 646.235 400.173 644.461C402.722 651.675 405.418 666.077 403.023 673.868C400.972 680.539 387.173 699.039 370.885 696.749C364.993 695.921 359.391 691.942 357.747 686.224C354.693 675.599 367.235 667.055 367.14 664.659C367.047 662.31 362.874 638.884 360.799 627.465L361.668 655.034C359.689 665.03 351.545 683.189 333.031 677.327C314.516 671.464 322.427 657.159 328.476 650.922C328.837 611.876 334.748 604.062 336.621 599.691C333.998 603.027 326.159 607.324 319.727 605.749C314.163 604.387 311.453 597.889 311.833 592.174Z" fill="white"/>
</g>
<path d="M311.833 592.174C313.386 568.801 355.507 548.38 370.896 545.612C391.777 564.69 410.716 569.333 423.634 566.256C434.247 592.456 426.385 630.893 419.245 639.095C412.106 647.298 405.902 646.235 400.173 644.461C402.722 651.675 405.418 666.077 403.023 673.868C400.972 680.539 387.173 699.039 370.885 696.749C364.993 695.921 359.391 691.942 357.747 686.224C354.693 675.599 367.235 667.055 367.14 664.659C367.047 662.31 362.874 638.884 360.799 627.465L361.668 655.034C359.689 665.03 351.545 683.189 333.031 677.327C314.516 671.464 322.427 657.159 328.476 650.922C328.837 611.876 334.748 604.062 336.621 599.691C333.998 603.027 326.159 607.324 319.727 605.749C314.163 604.387 311.453 597.889 311.833 592.174Z" stroke="black"/>
<path d="M311.845 591.989C313.398 568.616 355.519 548.195 370.908 545.427C391.789 564.506 410.728 569.148 423.646 566.071C434.259 592.271 426.397 630.708 419.257 638.911C412.117 647.113 405.914 646.05 400.185 644.276C402.734 651.49 405.429 665.892 403.035 673.683C400.984 680.355 387.185 698.854 370.897 696.565C365.004 695.737 359.403 691.758 357.759 686.039C354.705 675.414 367.247 666.87 367.152 664.474C367.058 662.125 362.886 638.7 360.811 627.281L361.68 654.85C359.701 664.846 351.557 683.005 333.042 677.142C314.528 671.279 322.438 656.974 328.487 650.738C328.849 611.692 334.818 603.917 336.691 599.546C334.065 602.885 326.189 607.164 319.737 605.569C314.176 604.194 311.465 597.705 311.845 591.989Z" fill="white" stroke="black"/>
<path fill-rule="evenodd" clip-rule="evenodd" d="M313.393 600.791C314.344 602.583 315.714 604.089 317.544 604.993C321.204 606.801 325.654 606.166 329.417 604.613C336.255 601.006 336.723 598.807 338.324 596.076C338.635 595.546 338.397 594.442 337.676 594.04C334.757 597.751 320.731 604.45 314.02 601.135C313.805 601.029 313.596 600.914 313.393 600.791ZM322.67 670.24C324.235 673.066 327.409 675.578 332.953 677.334C351.468 683.196 359.612 665.037 361.59 655.041L361.334 646.9C360.997 639.001 361.705 633.29 360.609 627.254C359.418 635.123 357.661 643.409 355.828 651.46C353.995 659.511 347.943 679.338 329.429 673.475C326.588 672.576 324.369 671.477 322.67 670.24ZM359.17 689.606C361.233 692.934 364.705 695.306 368.518 696.298C385.786 700.793 400.799 680.857 402.946 673.874C405.34 666.084 402.644 651.682 400.096 644.467C405.825 646.242 412.028 647.305 419.168 639.102C426.307 630.899 434.169 592.463 423.557 566.263C422.909 566.417 422.245 566.552 421.567 566.667C429.814 592.594 422.405 627.476 415.643 635.244C408.504 643.446 402.3 642.383 396.571 640.609C399.12 647.824 401.816 662.226 399.421 670.016C397.275 676.999 382.261 696.935 364.994 692.44C362.889 691.892 360.887 690.924 359.17 689.606Z" fill="#12053D" fill-opacity="0.63"/>
<path d="M401.697 572.103C400.827 582.47 397.45 608.08 394.615 614.166C391.037 617.099 387.103 621.726 388.455 626.026C389.615 629.714 394.484 629.708 395.674 628.341C393.752 633.094 394.158 645.519 408.012 646.046" stroke="black"/>
<path fill-rule="evenodd" clip-rule="evenodd" d="M328.401 636.839C328.431 636.849 328.492 636.868 328.565 636.88L328.913 634.689C329.078 634.716 329.232 634.781 329.266 634.796C329.268 634.797 329.271 634.799 329.271 634.799C329.341 634.828 329.421 634.864 329.504 634.903C329.616 634.955 329.758 635.023 329.921 635.101C329.999 635.138 330.081 635.178 330.168 635.219C330.713 635.478 331.471 635.834 332.409 636.239C334.287 637.049 336.879 638.051 339.891 638.852C345.943 640.462 354.545 641.004 361.435 637.924L361.335 640.163C353.776 643.543 345.587 642.662 339.321 640.996C336.175 640.159 333.476 639.114 331.531 638.275C330.558 637.855 329.772 637.486 329.215 637.221C329.119 637.176 329.032 637.134 328.952 637.096C328.796 637.021 328.67 636.961 328.567 636.913C328.49 636.877 328.44 636.855 328.41 636.842C328.407 636.841 328.404 636.84 328.401 636.839ZM328.382 636.831C328.382 636.831 328.387 636.833 328.401 636.839C328.389 636.834 328.382 636.831 328.382 636.831Z" fill="black"/>
<path fill-rule="evenodd" clip-rule="evenodd" d="M347.109 659.722C332.726 662.103 328.428 654.566 327.907 651.005L329.047 650.839C329.459 653.651 333.178 659.257 347.109 659.722Z" fill="black"/>
<path fill-rule="evenodd" clip-rule="evenodd" d="M382.424 651.076C375.06 650.615 368.172 648.958 364.482 647.775L364.211 645.543C367.739 646.674 375.395 648.414 382.563 648.863C386.145 649.087 389.68 649.013 392.736 648.454C395.809 647.891 398.897 646.898 400.475 645.313L401.496 647.293C399.463 649.335 396.414 650.034 393.135 650.635C389.838 651.239 386.108 651.307 382.424 651.076Z" fill="black"/>
<path fill-rule="evenodd" clip-rule="evenodd" d="M368.838 667.949C367.676 667.024 366.847 666.106 366.453 665.365L367.471 664.824C367.759 665.365 368.45 666.166 369.556 667.048C370.651 667.919 372.118 668.842 373.915 669.64C377.506 671.235 383.498 673.086 390.057 672.207C384.454 674.416 377.214 672.367 373.447 670.694C371.564 669.857 370.013 668.884 368.838 667.949Z" fill="black"/>
<path fill-rule="evenodd" clip-rule="evenodd" d="M409.63 588.825C405.207 588.944 401.671 589.833 399.22 590.497L399.705 587.929C402.232 587.245 404.895 586.734 409.57 586.608C414.229 586.482 420.029 586.976 428.703 588.855L428.79 591.078C420.241 589.227 414.068 588.705 409.63 588.825Z" fill="black"/>
<path fill-rule="evenodd" clip-rule="evenodd" d="M339.583 561.157C338.891 560.701 338.078 560.273 337.692 559.999L339.235 558.588C339.571 558.827 340.079 558.827 340.725 559.251C343.918 561.35 350.456 565.649 355.984 571.533L354.368 573.052C349.054 567.396 342.834 563.298 339.583 561.157Z" fill="black"/>
<path fill-rule="evenodd" clip-rule="evenodd" d="M321.682 578.798C323.496 576.049 326.687 571.935 331.11 570.653L331.112 570.646C326.996 574.052 324.225 577.056 322.53 579.626C321.681 580.912 321.127 582.087 320.846 583.087C320.565 584.089 320.573 584.859 320.769 585.406C320.918 585.821 321.248 586.058 321.904 586.015C322.573 585.97 323.454 585.626 324.427 585.048C326.369 583.894 328.467 581.935 329.61 580.223L329.488 579.955L329.791 581.098C329.947 581.689 330.271 582.069 330.737 582.244C331.221 582.425 331.896 582.397 332.731 582.04C334.4 581.326 337.469 578.825 340.148 575.488L340.17 575.451C339.418 578.087 335.012 582.492 333.039 583.335C332.052 583.757 331.124 583.849 330.356 583.56C329.85 583.37 329.43 583.021 329.125 582.531C327.813 584.21 326.656 585.213 324.861 586.279C323.828 586.893 322.786 587.327 321.899 587.386C320.999 587.446 320.138 587.114 319.746 586.024C319.402 585.067 319.457 583.915 319.796 582.707C320.136 581.497 320.776 580.171 321.682 578.798Z" fill="black"/>
<g filter="url(#filter1_d_3175_1812)">
<ellipse cx="62.2415" cy="60.5207" rx="62.2415" ry="60.5207" transform="matrix(0.987588 0.157068 -0.157025 0.987595 350.605 442)" fill="white"/>
<ellipse cx="62.2415" cy="60.5207" rx="62.2415" ry="60.5207" transform="matrix(0.987588 0.157068 -0.157025 0.987595 350.605 442)" stroke="black"/>
</g>
<ellipse cx="57.0547" cy="57.6387" rx="57.0547" ry="57.6387" transform="matrix(0.987588 0.157068 -0.157025 0.987595 349.5 446.493)" fill="white" stroke="black"/>
<g filter="url(#filter2_i_3175_1812)">
<ellipse cx="53.0205" cy="54.1804" rx="53.0205" ry="54.1804" transform="matrix(0.987588 0.157068 -0.157025 0.987595 349.34 449.969)" fill="#3A2482"/>
</g>
<ellipse cx="8.06888" cy="9.79794" rx="8.06888" ry="9.79794" transform="matrix(0.711892 0.702288 -0.702188 0.711991 422.199 504.746)" fill="white"/>
<ellipse cx="3.45786" cy="3.45832" rx="3.45786" ry="3.45832" transform="matrix(0.987588 0.157068 -0.157025 0.987595 409.652 533.099)" fill="#FFFFFB"/>
<path d="M356.458 493.111C362.418 475.859 382.038 458.152 408.231 472.445C387.189 470.729 373.14 473.661 356.458 493.111Z" fill="white"/>
<g filter="url(#filter3_i_3175_1812)">
<ellipse cx="20.441" cy="23.2657" rx="20.441" ry="23.2657" transform="matrix(0.987588 0.157068 -0.157025 0.987595 433.344 520.1)" fill="white"/>
</g>
<path d="M469.571 549.419C467.587 561.898 457.121 570.491 446.303 568.771C435.485 567.05 428.2 555.634 430.184 543.155C432.168 530.676 442.634 522.083 453.452 523.804C464.271 525.525 471.555 536.94 469.571 549.419Z" stroke="black"/>
<g filter="url(#filter4_i_3175_1812)">
<ellipse cx="15.139" cy="18.9558" rx="15.139" ry="18.9558" transform="matrix(0.962619 0.270858 -0.270788 0.962639 445.008 527.18)" fill="white"/>
</g>
<path d="M468.54 553.493C465.75 563.411 457.138 569.457 449.45 567.294C441.763 565.131 437.566 555.481 440.356 545.563C443.146 535.644 451.758 529.598 459.445 531.762C467.133 533.925 471.33 543.574 468.54 553.493Z" stroke="black"/>
<path d="M362.603 565.303C352.771 572.856 333.998 594.588 330.402 620.863" stroke="black"/>
<g filter="url(#filter5_i_3175_1812)">
<path d="M388.186 596.229C392.084 588.857 384.25 585.263 379.847 584.387L366.745 609.643C382.301 618.953 383.313 605.443 388.186 596.229Z" fill="white"/>
</g>
<path d="M388.186 596.229C392.084 588.857 384.25 585.263 379.847 584.387L366.745 609.643C382.301 618.953 383.313 605.443 388.186 596.229Z" stroke="black"/>
<g filter="url(#filter6_i_3175_1812)">
<path d="M337.942 595.231C336.7 591.298 341.552 580.908 345.104 574.469C348.035 569.157 351.657 569.554 354.308 570.683C358.68 572.546 365.375 575.597 371.641 578.997C380.774 583.951 381.821 584.701 380.528 589.165C379.235 593.628 376.351 600.756 373.169 606.087C369.987 611.417 365.998 609.615 364.29 609.343C362.583 609.072 339.495 600.147 337.942 595.231Z" fill="white"/>
</g>
<path d="M337.942 595.231C336.7 591.298 341.552 580.908 345.104 574.469C348.035 569.157 351.657 569.554 354.308 570.683C358.68 572.546 365.375 575.597 371.641 578.997C380.774 583.951 381.821 584.701 380.528 589.165C379.235 593.628 376.351 600.756 373.169 606.087C369.987 611.417 365.998 609.615 364.29 609.343C362.583 609.072 339.495 600.147 337.942 595.231Z" stroke="black"/>
<ellipse cx="5.18679" cy="5.18749" rx="5.18679" ry="5.18749" transform="matrix(0.987588 0.157068 -0.157025 0.987595 361.535 586.144)" fill="#F18DCE" stroke="black"/>
<ellipse cx="5.18679" cy="5.18749" rx="5.18679" ry="5.18749" transform="matrix(0.987588 0.157068 -0.157025 0.987595 359.055 584.583)" fill="#E8A721" stroke="black"/>
<path d="M380.815 599.746C381.269 597.997 383.216 597.108 384.835 597.911L388.372 599.667C389.688 600.32 391.056 600.863 392.461 601.292L397.526 602.836L396.446 608.6L390.743 606.89C389.122 606.404 387.551 605.764 386.053 604.978L382.248 602.982C381.076 602.367 380.482 601.026 380.815 599.746Z" fill="white" stroke="black"/>
<path d="M353.65 570.883L349.134 582.469C348.869 583.148 348.861 583.9 349.11 584.585L350.488 588.368C350.663 588.847 350.712 589.362 350.632 589.866L348.582 602.76" stroke="black"/>
<path fill-rule="evenodd" clip-rule="evenodd" d="M361.146 628.214C355.091 627.88 350.816 625.978 347.574 621.946C350.912 623.843 353.826 626.518 361.191 627.204L361.146 628.214Z" fill="black"/>
<path fill-rule="evenodd" clip-rule="evenodd" d="M427.333 574.934C426.999 575.04 426.825 575.157 426.749 575.241L425.922 574.462C426.192 574.163 426.585 573.968 427.002 573.834C427.43 573.698 427.941 573.608 428.509 573.559C429.646 573.459 431.071 573.515 432.634 573.723C435.76 574.139 440.631 574.795 443.625 577.529C440.977 576.217 435.502 575.267 432.481 574.865C430.971 574.665 429.631 574.616 428.598 574.707C428.081 574.752 427.657 574.83 427.333 574.934Z" fill="black"/>
<path d="M613.17 504.736C609.879 511.519 604.847 516.642 599.392 519.453C593.938 522.264 588.093 522.751 583.116 520.336C578.14 517.921 574.905 513.027 573.737 507.003C572.569 500.978 573.478 493.855 576.769 487.071C580.06 480.288 585.092 475.165 590.547 472.354C596.001 469.544 601.846 469.056 606.822 471.472C611.799 473.887 615.034 478.78 616.202 484.804C617.37 490.829 616.46 497.953 613.17 504.736Z" fill="#DD510E" stroke="#DB7517"/>
<path d="M609.658 502.601C606.367 509.384 601.335 514.507 595.881 517.318C590.426 520.129 584.581 520.616 579.605 518.201C574.628 515.786 571.393 510.893 570.225 504.868C569.057 498.844 569.967 491.72 573.257 484.937C576.548 478.154 581.58 473.03 587.035 470.219C592.489 467.409 598.334 466.922 603.311 469.337C608.287 471.752 611.522 476.645 612.69 482.669C613.858 488.694 612.949 495.818 609.658 502.601Z" fill="#FFB232" stroke="#DB7517"/>
<g filter="url(#filter7_i_3175_1812)">
<ellipse cx="18.4881" cy="24.7573" rx="18.4881" ry="24.7573" transform="matrix(0.899662 0.436586 -0.436487 0.89971 585.594 463.506)" fill="#F688CF"/>
</g>
<path d="M607.604 501.706C604.662 507.769 600.172 512.35 595.311 514.866C590.45 517.382 585.251 517.821 580.833 515.677C576.414 513.532 573.541 509.177 572.509 503.801C571.477 498.425 572.296 492.062 575.237 485.999C578.179 479.936 582.669 475.355 587.53 472.839C592.391 470.323 597.59 469.883 602.009 472.028C606.427 474.172 609.3 478.528 610.332 483.904C611.364 489.279 610.545 495.642 607.604 501.706Z" stroke="#B95F00"/>
<g filter="url(#filter8_i_3175_1812)">
<path d="M589.24 482.891L602.967 497.707L583.275 502.188L589.24 482.891Z" fill="#FFB824"/>
</g>
<path d="M584.008 501.509L589.462 483.866L602.012 497.411L584.008 501.509Z" stroke="#B95F00"/>
<path d="M181.622 677.305C175.026 674.263 169.997 669.511 167.187 664.31C164.377 659.109 163.799 653.49 166.029 648.653C168.26 643.816 172.909 640.608 178.689 639.37C184.468 638.131 191.347 638.872 197.943 641.915C204.539 644.958 209.568 649.709 212.378 654.911C215.188 660.112 215.766 665.731 213.535 670.568C211.305 675.404 206.656 678.612 200.876 679.851C195.096 681.09 188.218 680.348 181.622 677.305Z" fill="#DD510E" stroke="#DB7517"/>
<path d="M183.79 673.244C177.194 670.202 172.165 665.45 169.355 660.249C166.545 655.048 165.967 649.429 168.197 644.592C170.428 639.755 175.077 636.547 180.857 635.309C186.636 634.07 193.515 634.811 200.111 637.854C206.707 640.897 211.736 645.648 214.546 650.85C217.356 656.051 217.934 661.67 215.703 666.507C213.473 671.343 208.824 674.551 203.044 675.79C197.264 677.029 190.386 676.287 183.79 673.244Z" fill="#FFB232" stroke="#DB7517"/>
<g filter="url(#filter9_i_3175_1812)">
<ellipse cx="17.8247" cy="23.8648" rx="17.8247" ry="23.8648" transform="matrix(-0.418787 0.908087 -0.908038 -0.418882 221.004 649.322)" fill="#FFB824"/>
</g>
<path d="M184.614 671.244C178.718 668.524 174.221 664.284 171.707 659.65C169.193 655.016 168.673 650.018 170.653 645.724C172.633 641.43 176.771 638.582 181.928 637.486C187.085 636.391 193.229 637.059 199.124 639.779C205.02 642.499 209.517 646.739 212.031 651.373C214.545 656.007 215.065 661.005 213.085 665.299C211.105 669.593 206.967 672.441 201.81 673.536C196.653 674.632 190.509 673.964 184.614 671.244Z" stroke="#B95F00"/>
<g filter="url(#filter10_i_3175_1812)">
<path d="M202.392 653.203L188.373 666.715L183.682 647.816L202.392 653.203Z" fill="#FFB824"/>
</g>
<path d="M184.376 648.537L201.421 653.444L188.65 665.754L184.376 648.537Z" stroke="#B95F00"/>
<path d="M248.243 478.808C245.26 476.513 243.271 473.541 242.453 470.608C241.635 467.676 241.992 464.817 243.639 462.674C245.286 460.532 247.957 459.452 251.001 459.489C254.045 459.527 257.428 460.685 260.411 462.979C263.395 465.273 265.383 468.245 266.201 471.178C267.019 474.11 266.662 476.97 265.016 479.112C263.369 481.254 260.698 482.334 257.654 482.297C254.61 482.26 251.227 481.102 248.243 478.808Z" fill="#DD510E" stroke="#DB7517"/>
<path d="M249.892 477.115C246.908 474.821 244.92 471.848 244.102 468.916C243.284 465.983 243.641 463.124 245.287 460.982C246.934 458.84 249.605 457.76 252.649 457.797C255.693 457.834 259.076 458.992 262.06 461.286C265.043 463.58 267.032 466.553 267.85 469.485C268.668 472.418 268.311 475.277 266.664 477.419C265.017 479.562 262.346 480.641 259.302 480.604C256.258 480.567 252.875 479.409 249.892 477.115Z" fill="#FFB232" stroke="#DB7517"/>
<g filter="url(#filter11_i_3175_1812)">
<ellipse cx="9.34914" cy="12.5173" rx="9.34914" ry="12.5173" transform="matrix(-0.60945 0.792797 -0.792749 -0.609584 271.559 469.392)" fill="#FFB824"/>
</g>
<path d="M250.545 476.189C247.881 474.141 246.106 471.492 245.373 468.884C244.641 466.275 244.956 463.741 246.411 461.848C247.866 459.955 250.234 458.999 252.943 459.037C255.652 459.075 258.668 460.11 261.331 462.158C263.994 464.206 265.769 466.855 266.502 469.463C267.235 472.072 266.92 474.606 265.464 476.499C264.009 478.392 261.641 479.348 258.932 479.31C256.223 479.272 253.208 478.237 250.545 476.189Z" stroke="#B95F00"/>
<g filter="url(#filter12_i_3175_1812)">
<ellipse cx="501.038" cy="672.931" rx="8.60038" ry="8.60158" fill="#FFB824"/>
</g>
<path d="M664.491 566.143C679.677 581.284 679.716 605.87 664.578 621.058C649.44 636.246 624.857 636.284 609.671 621.144C594.485 606.004 594.447 581.418 609.585 566.23C624.723 551.042 649.305 551.003 664.491 566.143Z" fill="#CBEF7B" stroke="#A0D230" stroke-width="1.81622"/>
<path d="M601.052 611.556C602.351 614.17 603.93 616.634 605.761 618.904C605.157 620.11 604.746 621.168 604.57 622.041C604.385 622.957 604.428 623.827 604.99 624.387C605.487 624.883 606.227 624.969 607.008 624.857C607.803 624.743 608.765 624.408 609.854 623.898C612.04 622.874 614.857 621.088 618.105 618.697C624.609 613.911 632.916 606.649 641.491 598.046C650.066 589.442 657.301 581.111 662.066 574.592C664.446 571.335 666.223 568.512 667.24 566.323C667.747 565.232 668.079 564.269 668.19 563.473C668.299 562.692 668.211 561.952 667.713 561.456C667.152 560.896 666.282 560.856 665.368 561.043C664.496 561.222 663.439 561.636 662.237 562.243C659.961 560.42 657.493 558.848 654.874 557.556C662.63 551.589 669.564 547.115 675.023 544.552C677.83 543.235 680.22 542.436 682.115 542.187C684.022 541.936 685.322 542.253 686.09 543.019C686.681 543.609 687.008 544.51 687.015 545.772C687.022 547.037 686.707 548.614 686.069 550.476C684.795 554.199 682.27 558.952 678.685 564.421C671.521 575.35 660.182 589.045 646.366 602.906C632.551 616.768 618.893 628.151 607.988 635.351C602.532 638.953 597.787 641.493 594.069 642.78C592.209 643.424 590.633 643.744 589.369 643.74C588.107 643.737 587.204 643.413 586.613 642.824C585.845 642.058 585.524 640.759 585.769 638.851C586.012 636.954 586.803 634.562 588.112 631.75C590.657 626.281 595.109 619.332 601.052 611.556Z" fill="#FFB232" stroke="#DB7517"/>
<path d="M111.822 464.569L108.663 470.453C106.462 474.554 107.223 479.615 110.533 482.887L172.911 544.559C176.096 547.708 180.927 548.49 184.943 546.507L218.755 529.809C220.977 528.711 222.74 526.863 223.73 524.591L226.569 518.079C228.351 513.991 227.357 509.222 224.088 506.187L162.703 449.194C159.809 446.507 155.651 445.671 151.944 447.03L117.458 459.678C115.044 460.563 113.038 462.303 111.822 464.569Z" fill="#2946DC" stroke="black" stroke-linecap="round"/>
<path d="M177.29 532.765L118.063 474.125C112.84 468.953 114.792 460.104 121.705 457.611L152.7 446.434C156.196 445.173 160.102 445.955 162.844 448.464L222.606 503.152C227.831 507.933 226.567 516.481 220.182 519.545L188.652 534.675C184.842 536.504 180.293 535.739 177.29 532.765Z" fill="#FF89D5" stroke="black" stroke-linecap="round"/>
<path d="M168.029 539.651L173.134 527.971L223.564 503.962" stroke="black" stroke-linecap="round"/>
<path d="M173.576 519.914L120.272 468.066C118.667 466.506 119.275 463.801 121.392 463.077L155.93 451.261C157.298 450.793 158.812 451.099 159.89 452.062L212.724 499.261C214.332 500.698 213.944 503.312 211.988 504.219L176.931 520.485C175.802 521.009 174.468 520.782 173.576 519.914Z" fill="#171717"/>
<path d="M204.578 523.496C205.597 523.722 206.626 523.649 207.477 523.298C208.324 522.948 209.081 522.274 209.302 521.277C209.524 520.281 209.123 519.35 208.504 518.674C207.882 517.996 206.981 517.494 205.961 517.267C204.941 517.041 203.913 517.114 203.062 517.465C202.215 517.815 201.458 518.489 201.236 519.485C201.015 520.482 201.416 521.413 202.035 522.089C202.657 522.767 203.558 523.269 204.578 523.496Z" fill="white" stroke="black" stroke-width="2"/>
<path d="M145.367 464.01L145.372 464.067L145.373 464.125C145.39 465.253 144.775 466.041 144.006 466.509C143.319 466.927 142.466 467.128 141.696 467.249C140.898 467.375 140.005 467.441 139.151 467.498C139.026 467.506 138.9 467.514 138.776 467.522C138.032 467.571 137.313 467.617 136.626 467.693C136.3 467.729 135.905 467.836 135.517 467.985C135.167 468.12 134.891 468.261 134.744 468.352C134.119 468.856 133.842 469.171 133.614 469.43C133.575 469.475 133.537 469.518 133.499 469.56C133.345 469.731 133.116 469.973 132.769 470.172C132.43 470.367 132.073 470.467 131.724 470.538C131.185 470.646 130.69 470.495 130.403 470.379C130.066 470.241 129.724 470.031 129.427 469.756C128.843 469.215 128.262 468.212 128.683 467.034C128.886 466.283 129.351 465.654 129.856 465.152C130.396 464.616 131.071 464.136 131.799 463.717C133.255 462.877 135.076 462.191 136.876 461.763C136.908 461.755 136.94 461.748 136.971 461.74C138.558 461.363 140.325 460.942 141.735 460.972C142.468 460.987 143.335 461.122 144.07 461.643C144.879 462.216 145.278 463.072 145.367 464.01Z" fill="white" stroke="black" stroke-width="3"/>
<path d="M90.4711 471.294C85.5024 472.83 71.538 474.321 55.4302 467.992" stroke="white" stroke-width="9" stroke-linecap="round" stroke-linejoin="round"/>
<path d="M102.407 441.066C99.1737 440.967 92.7797 437.433 93.7887 430.257" stroke="white" stroke-width="9" stroke-linecap="round" stroke-linejoin="round"/>
<path d="M98.8658 455.097C95.6289 454.944 87.696 453.119 81.8604 447.042" stroke="white" stroke-width="9" stroke-linecap="round" stroke-linejoin="round"/>
<g filter="url(#filter13_i_3175_1812)">
<ellipse cx="8.48903" cy="8.58367" rx="8.48903" ry="8.58367" transform="matrix(-0.109857 0.993947 -0.993944 -0.109887 331.574 757.125)" fill="#FFB824"/>
</g>
<path d="M321.232 772.56C316.79 772.069 313.591 768.111 314.075 763.731C314.559 759.351 318.545 756.187 322.988 756.678C327.43 757.17 330.629 761.127 330.145 765.507C329.661 769.888 325.675 773.051 321.232 772.56Z" stroke="#B95F00"/>
<path opacity="0.5" d="M242.197 318.293H569.944L654.198 647.96H115.816L242.197 318.293Z" fill="url(#paint0_linear_3175_1812)"/>
<path d="M438.477 400.446C448.673 400.545 457.914 397.535 464.614 392.613C471.313 387.691 475.446 380.879 475.519 373.354C475.592 365.83 471.592 358.939 464.989 353.888C458.386 348.837 449.205 345.649 439.009 345.55C428.813 345.451 419.571 348.461 412.872 353.383C406.173 358.305 402.039 365.117 401.966 372.641C401.893 380.166 405.894 387.056 412.497 392.107C419.099 397.159 428.281 400.347 438.477 400.446Z" fill="#DD510E" stroke="#DB7517"/>
<path d="M438.074 388.064C448.27 388.163 457.512 385.153 464.211 380.231C470.911 375.309 475.044 368.497 475.117 360.973C475.19 353.448 471.189 346.558 464.587 341.506C457.984 336.455 448.802 333.267 438.606 333.168C428.411 333.069 419.169 336.079 412.47 341.001C405.77 345.923 401.637 352.735 401.564 360.26C401.491 367.784 405.492 374.675 412.094 379.726C418.697 384.777 427.879 387.965 438.074 388.064Z" fill="#FFB232" stroke="#DB7517"/>
<g filter="url(#filter14_i_3175_1812)">
<ellipse cx="24.9251" cy="33.3734" rx="24.9251" ry="33.3734" transform="matrix(-0.00969155 1.00001 0.999895 0.00969313 405.339 335.368)" fill="#FFB824"/>
</g>
<path d="M438.231 385.042C447.348 385.131 455.61 382.449 461.597 378.067C467.584 373.685 471.272 367.625 471.337 360.935C471.402 354.246 467.832 348.116 461.931 343.618C456.03 339.121 447.822 336.28 438.704 336.191C429.586 336.103 421.324 338.784 415.337 343.167C409.35 347.549 405.662 353.609 405.597 360.298C405.532 366.988 409.102 373.118 415.003 377.615C420.905 382.113 429.113 384.954 438.231 385.042Z" stroke="#B95F00"/>
<path d="M448.998 353.634C459.062 355.278 468.652 353.703 476.02 349.853C483.388 346.003 488.506 339.897 489.718 332.47C490.93 325.043 488.02 317.626 482.259 311.633C476.498 305.639 467.906 301.096 457.842 299.453C447.779 297.81 438.188 299.384 430.82 303.234C423.453 307.084 418.335 313.19 417.123 320.617C415.91 328.044 418.821 335.461 424.582 341.455C430.343 347.448 438.935 351.991 448.998 353.634Z" fill="#DD510E" stroke="#DB7517"/>
<path d="M450.483 341.335C460.546 342.978 470.137 341.403 477.505 337.553C484.873 333.703 489.99 327.597 491.202 320.17C492.415 312.743 489.504 305.327 483.743 299.333C477.982 293.339 469.39 288.796 459.327 287.153C449.264 285.51 439.673 287.085 432.305 290.935C424.937 294.784 419.819 300.891 418.607 308.318C417.395 315.744 420.305 323.161 426.066 329.155C431.827 335.148 440.42 339.692 450.483 341.335Z" fill="#FFB232" stroke="#DB7517"/>
<g filter="url(#filter15_i_3175_1812)">
<ellipse cx="24.9248" cy="33.3738" rx="24.9248" ry="33.3738" transform="matrix(-0.161106 0.987004 0.986866 0.161129 426.104 284.286)" fill="#FFB824"/>
</g>
<path d="M451.089 338.371C460.088 339.841 468.661 338.443 475.243 335.018C481.825 331.594 486.389 326.163 487.467 319.561C488.544 312.959 485.944 306.358 480.793 301.018C475.641 295.678 467.958 291.626 458.959 290.157C449.961 288.687 441.388 290.085 434.806 293.51C428.224 296.934 423.66 302.365 422.582 308.967C421.505 315.569 424.104 322.17 429.256 327.51C434.407 332.85 442.091 336.902 451.089 338.371Z" stroke="#B95F00"/>
<path d="M439.213 322.174C449.277 323.817 458.867 322.242 466.235 318.392C473.603 314.542 478.721 308.436 479.933 301.009C481.145 293.582 478.235 286.166 472.474 280.172C466.713 274.178 458.12 269.635 448.057 267.992C437.994 266.349 428.403 267.924 421.035 271.774C413.668 275.623 408.55 281.73 407.338 289.156C406.125 296.583 409.036 304 414.797 309.994C420.558 315.987 429.15 320.531 439.213 322.174Z" fill="#DD510E" stroke="#DB7517"/>
<path d="M440.698 309.874C450.761 311.517 460.352 309.942 467.72 306.093C475.087 302.243 480.205 296.136 481.417 288.71C482.63 281.283 479.719 273.866 473.958 267.872C468.197 261.879 459.605 257.335 449.542 255.692C439.478 254.049 429.888 255.624 422.52 259.474C415.152 263.324 410.034 269.43 408.822 276.857C407.61 284.284 410.52 291.7 416.281 297.694C422.042 303.688 430.635 308.231 440.698 309.874Z" fill="#FFB232" stroke="#DB7517"/>
<g filter="url(#filter16_i_3175_1812)">
<ellipse cx="24.9248" cy="33.3738" rx="24.9248" ry="33.3738" transform="matrix(-0.161106 0.987004 0.986866 0.161129 416.319 252.825)" fill="#FFB824"/>
</g>
<path d="M441.304 306.911C450.303 308.38 458.876 306.982 465.458 303.558C472.04 300.133 476.604 294.702 477.681 288.1C478.759 281.498 476.159 274.897 471.008 269.557C465.856 264.217 458.173 260.165 449.174 258.696C440.175 257.227 431.603 258.625 425.021 262.049C418.438 265.473 413.875 270.904 412.797 277.506C411.72 284.109 414.319 290.709 419.471 296.049C424.622 301.389 432.305 305.441 441.304 306.911Z" stroke="#B95F00"/>
<path d="M451.475 279.501C461.473 277.499 469.897 272.652 475.441 266.456C480.984 260.261 483.627 252.745 482.151 245.366C480.674 237.987 475.341 232.068 467.841 228.483C460.34 224.899 450.699 223.668 440.701 225.67C430.703 227.672 422.278 232.519 416.735 238.715C411.192 244.91 408.548 252.426 410.025 259.805C411.502 267.184 416.834 273.103 424.335 276.688C431.836 280.272 441.477 281.502 451.475 279.501Z" fill="#DD510E" stroke="#DB7517"/>
<path d="M448.533 267.467C458.531 265.465 466.956 260.618 472.499 254.422C478.042 248.227 480.686 240.711 479.209 233.332C477.732 225.953 472.4 220.033 464.899 216.449C457.398 212.865 447.758 211.634 437.76 213.636C427.761 215.637 419.337 220.485 413.794 226.68C408.25 232.876 405.607 240.392 407.084 247.771C408.56 255.15 413.893 261.069 421.394 264.653C428.894 268.238 438.535 269.468 448.533 267.467Z" fill="#FFB232" stroke="#DB7517"/>
<g filter="url(#filter17_i_3175_1812)">
<ellipse cx="24.9255" cy="33.373" rx="24.9255" ry="33.373" transform="matrix(0.196256 0.980592 0.980505 -0.196294 405.655 222.635)" fill="#FFB824"/>
</g>
<path d="M448.063 264.477C457.004 262.687 464.537 258.363 469.495 252.843C474.452 247.322 476.814 240.633 475.502 234.073C474.189 227.514 469.434 222.249 462.734 219.062C456.034 215.875 447.416 214.785 438.476 216.575C429.535 218.364 422.002 222.689 417.044 228.209C412.087 233.73 409.724 240.419 411.037 246.979C412.35 253.538 417.105 258.803 423.805 261.989C430.505 265.176 439.122 266.267 448.063 264.477Z" stroke="#B95F00"/>
<path d="M418.97 388.122C408.921 389.853 399.317 388.362 391.916 384.576C384.515 380.79 379.345 374.729 378.068 367.312C376.791 359.896 379.637 352.454 385.346 346.411C391.055 340.368 399.607 335.75 409.656 334.02C419.704 332.289 429.308 333.78 436.71 337.566C444.11 341.352 449.281 347.413 450.558 354.83C451.834 362.246 448.989 369.688 443.28 375.731C437.571 381.774 429.018 386.392 418.97 388.122Z" fill="#DD510E" stroke="#DB7517"/>
<path d="M417.38 375.835C407.331 377.565 397.727 376.074 390.326 372.289C382.925 368.503 377.755 362.441 376.478 355.025C375.201 347.609 378.047 340.167 383.756 334.124C389.465 328.08 398.017 323.463 408.066 321.732C418.115 320.002 427.719 321.493 435.12 325.279C442.521 329.065 447.691 335.126 448.968 342.542C450.245 349.959 447.399 357.4 441.69 363.444C435.981 369.487 427.428 374.105 417.38 375.835Z" fill="#FFB232" stroke="#DB7517"/>
<g filter="url(#filter18_i_3175_1812)">
<ellipse cx="24.9254" cy="33.373" rx="24.9254" ry="33.373" transform="matrix(0.169664 0.985544 -0.985454 0.169696 441.262 318.577)" fill="#FFB824"/>
</g>
<path d="M416.747 372.877C407.761 374.425 399.177 373.101 392.565 369.734C385.954 366.367 381.343 360.976 380.208 354.384C379.073 347.791 381.616 341.168 386.721 335.784C391.826 330.399 399.473 326.28 408.459 324.733C417.445 323.185 426.029 324.509 432.641 327.876C439.252 331.243 443.863 336.634 444.998 343.227C446.133 349.819 443.591 356.442 438.486 361.827C433.381 367.211 425.733 371.33 416.747 372.877Z" stroke="#B95F00"/>
<path d="M404.948 347.069C394.834 348.362 385.304 346.456 378.074 342.353C370.844 338.249 365.941 331.969 364.987 324.505C364.033 317.04 367.199 309.729 373.164 303.939C379.13 298.149 387.874 293.906 397.988 292.613C408.103 291.32 417.633 293.226 424.863 297.33C432.093 301.433 436.996 307.713 437.95 315.177C438.904 322.642 435.738 329.953 429.772 335.743C423.807 341.534 415.062 345.776 404.948 347.069Z" fill="#DD510E" stroke="#DB7517"/>
<path d="M403.897 334.725C393.783 336.018 384.253 334.112 377.023 330.009C369.793 325.906 364.89 319.626 363.936 312.161C362.982 304.697 366.148 297.385 372.113 291.595C378.079 285.805 386.824 281.563 396.938 280.27C407.052 278.977 416.582 280.883 423.812 284.986C431.042 289.089 435.945 295.369 436.899 302.834C437.853 310.298 434.687 317.61 428.722 323.4C422.756 329.19 414.012 333.432 403.897 334.725Z" fill="#FFB232" stroke="#DB7517"/>
<g filter="url(#filter19_i_3175_1812)">
<ellipse cx="24.9255" cy="33.3729" rx="24.9255" ry="33.3729" transform="matrix(0.126779 0.991972 -0.991887 0.126804 430.234 278.555)" fill="#FFB824"/>
</g>
<path d="M403.389 331.742C394.344 332.898 385.825 331.204 379.366 327.553C372.907 323.903 368.534 318.317 367.686 311.681C366.838 305.045 369.665 298.539 374.999 293.381C380.332 288.223 388.151 284.439 397.196 283.283C406.24 282.127 414.759 283.822 421.219 287.472C427.678 291.123 432.05 296.708 432.898 303.344C433.747 309.98 430.92 316.486 425.586 321.644C420.252 326.803 412.433 330.586 403.389 331.742Z" stroke="#B95F00"/>
<path d="M378.188 321.894C368.014 321.212 359.03 317.502 352.728 312.081C346.425 306.661 342.826 299.553 343.329 292.044C343.833 284.536 348.349 277.972 355.319 273.442C362.29 268.912 371.688 266.436 381.862 267.118C392.035 267.801 401.019 271.51 407.322 276.931C413.625 282.352 417.224 289.46 416.72 296.968C416.217 304.477 411.7 311.04 404.73 315.571C397.76 320.101 388.361 322.577 378.188 321.894Z" fill="#DD510E" stroke="#DB7517"/>
<path d="M379.532 309.58C369.358 308.897 360.374 305.188 354.071 299.767C347.769 294.346 344.169 287.238 344.673 279.73C345.177 272.221 349.693 265.658 356.663 261.128C363.633 256.597 373.032 254.121 383.206 254.804C393.379 255.487 402.363 259.196 408.666 264.617C414.968 270.038 418.568 277.146 418.064 284.654C417.561 292.162 413.044 298.726 406.074 303.256C399.104 307.787 389.705 310.262 379.532 309.58Z" fill="#FFB232" stroke="#DB7517"/>
<g filter="url(#filter20_i_3175_1812)">
<ellipse cx="24.9257" cy="33.3726" rx="24.9257" ry="33.3726" transform="matrix(-0.0669271 0.997791 -0.997723 -0.0669413 416.211 259.546)" fill="#FFB824"/>
</g>
<path d="M379.611 306.555C370.514 305.944 362.482 302.638 356.848 297.81C351.214 292.982 348.001 286.657 348.448 279.983C348.896 273.308 352.925 267.469 359.153 263.437C365.381 259.405 373.783 257.201 382.881 257.811C391.978 258.422 400.011 261.728 405.645 266.556C411.279 271.384 414.492 277.709 414.044 284.384C413.596 291.058 409.567 296.897 403.339 300.929C397.111 304.962 388.709 307.165 379.611 306.555Z" stroke="#B95F00"/>
<path d="M405.378 292.002C396.456 296.941 386.896 298.69 378.662 297.548C370.428 296.406 363.552 292.382 359.909 285.797C356.266 279.213 356.507 271.249 359.912 263.665C363.317 256.08 369.877 248.907 378.798 243.969C387.719 239.031 397.279 237.282 405.514 238.424C413.748 239.566 420.623 243.59 424.266 250.174C427.91 256.758 427.668 264.722 424.263 272.307C420.858 279.891 414.299 287.064 405.378 292.002Z" fill="#DD510E" stroke="#DB7517"/>
<path d="M399.839 280.921C390.917 285.859 381.357 287.608 373.123 286.466C364.889 285.324 358.013 281.3 354.37 274.716C350.727 268.132 350.968 260.168 354.373 252.583C357.778 244.999 364.337 237.826 373.259 232.888C382.18 227.949 391.74 226.2 399.975 227.342C408.208 228.484 415.084 232.508 418.727 239.093C422.371 245.677 422.129 253.641 418.724 261.225C415.319 268.81 408.76 275.983 399.839 280.921Z" fill="#FFB232" stroke="#DB7517"/>
<g filter="url(#filter21_i_3175_1812)">
<ellipse cx="24.9248" cy="33.3738" rx="24.9248" ry="33.3738" transform="matrix(0.484195 0.875002 -0.87488 0.484263 403.566 218.993)" fill="#FFB824"/>
</g>
<path d="M398.263 278.336C390.285 282.752 381.743 284.324 374.392 283.318C367.041 282.312 360.915 278.737 357.676 272.884C354.437 267.031 354.661 259.94 357.713 253.177C360.764 246.413 366.633 240.008 374.61 235.593C382.588 231.177 391.131 229.604 398.481 230.61C405.832 231.616 411.959 235.192 415.197 241.045C418.436 246.898 418.212 253.988 415.161 260.752C412.11 267.516 406.241 273.92 398.263 278.336Z" stroke="#B95F00"/>
<path d="M405.048 383.409C399.335 391.856 391.606 397.75 383.749 400.466C375.893 403.181 367.94 402.711 361.708 398.495C355.476 394.278 352.081 387.07 351.678 378.766C351.275 370.462 353.87 361.094 359.584 352.648C365.297 344.201 373.025 338.307 380.882 335.591C388.739 332.876 396.692 333.345 402.924 337.562C409.156 341.778 412.551 348.986 412.954 357.291C413.357 365.595 410.762 374.962 405.048 383.409Z" fill="#DD510E" stroke="#DB7517"/>
<path d="M395.087 376.043C389.374 384.489 381.645 390.383 373.789 393.099C365.932 395.815 357.979 395.345 351.747 391.128C345.515 386.912 342.12 379.704 341.717 371.4C341.314 363.095 343.909 353.728 349.623 345.281C355.336 336.835 363.064 330.94 370.921 328.225C378.778 325.509 386.731 325.979 392.963 330.195C399.195 334.412 402.59 341.62 402.993 349.924C403.396 358.228 400.801 367.596 395.087 376.043Z" fill="#FFB232" stroke="#DB7517"/>
<g filter="url(#filter22_i_3175_1812)">
<ellipse cx="24.924" cy="33.3749" rx="24.924" ry="33.3749" transform="matrix(0.828238 0.560387 -0.560273 0.828301 370.343 319.154)" fill="#FFB824"/>
</g>
<path d="M392.516 374.453C387.407 382.006 380.505 387.281 373.497 389.717C366.489 392.153 359.408 391.744 353.868 387.996C348.328 384.248 345.313 377.826 344.967 370.414C344.621 363.001 346.949 354.632 352.058 347.079C357.167 339.525 364.068 334.25 371.076 331.814C378.084 329.378 385.166 329.787 390.706 333.535C396.246 337.284 399.26 343.705 399.606 351.118C399.953 358.53 397.625 366.899 392.516 374.453Z" stroke="#B95F00"/>
<path d="M368.358 377.721C359.437 382.659 349.876 384.409 341.642 383.267C333.408 382.125 326.533 378.1 322.889 371.516C319.246 364.932 319.488 356.968 322.893 349.384C326.298 341.799 332.857 334.626 341.778 329.688C350.7 324.75 360.26 323 368.494 324.142C376.728 325.284 383.603 329.309 387.247 335.893C390.89 342.477 390.649 350.441 387.244 358.025C383.839 365.61 377.279 372.783 368.358 377.721Z" fill="#DD510E" stroke="#DB7517"/>
<path d="M362.823 366.639C353.902 371.578 344.341 373.327 336.107 372.185C327.873 371.043 320.998 367.019 317.354 360.434C313.711 353.85 313.952 345.886 317.357 338.302C320.763 330.717 327.322 323.544 336.243 318.606C345.164 313.668 354.725 311.919 362.959 313.061C371.193 314.203 378.068 318.227 381.712 324.811C385.355 331.395 385.114 339.359 381.709 346.944C378.303 354.528 371.744 361.701 362.823 366.639Z" fill="#FFB232" stroke="#DB7517"/>
<g filter="url(#filter23_i_3175_1812)">
<ellipse cx="24.9248" cy="33.3738" rx="24.9248" ry="33.3738" transform="matrix(0.484195 0.875002 -0.87488 0.484263 366.551 304.712)" fill="#FFB824"/>
</g>
<path d="M361.248 364.055C353.27 368.471 344.727 370.043 337.377 369.037C330.026 368.031 323.899 364.456 320.661 358.603C317.422 352.75 317.646 345.659 320.697 338.895C323.748 332.131 329.617 325.727 337.595 321.311C345.573 316.895 354.115 315.323 361.466 316.329C368.817 317.335 374.943 320.91 378.182 326.763C381.421 332.617 381.197 339.707 378.145 346.471C375.094 353.235 369.225 359.639 361.248 364.055Z" stroke="#B95F00"/>
<path d="M327.962 338.136C317.957 340.102 308.32 338.837 300.832 335.226C293.345 331.615 288.033 325.677 286.583 318.293C285.132 310.909 287.802 303.402 293.368 297.226C298.933 291.051 307.375 286.233 317.38 284.267C327.385 282.301 337.021 283.566 344.509 287.177C351.997 290.788 357.309 296.726 358.759 304.11C360.21 311.495 357.539 319.001 351.974 325.177C346.409 331.353 337.967 336.17 327.962 338.136Z" fill="#DD510E" stroke="#DB7517"/>
<path d="M326.091 325.891C316.086 327.857 306.449 326.592 298.961 322.981C291.474 319.37 286.162 313.431 284.712 306.047C283.261 298.663 285.931 291.157 291.497 284.981C297.062 278.805 305.504 273.988 315.509 272.022C325.514 270.056 335.15 271.321 342.638 274.932C350.126 278.542 355.438 284.481 356.888 291.865C358.339 299.249 355.668 306.756 350.103 312.931C344.538 319.107 336.096 323.925 326.091 325.891Z" fill="#FFB232" stroke="#DB7517"/>
<g filter="url(#filter24_i_3175_1812)">
<ellipse cx="24.9254" cy="33.3731" rx="24.9254" ry="33.3731" transform="matrix(0.192766 0.981287 -0.981195 0.192802 348.616 268.086)" fill="#FFB824"/>
</g>
<path d="M325.384 322.948C316.437 324.706 307.824 323.584 301.135 320.374C294.446 317.163 289.71 311.882 288.421 305.318C287.131 298.753 289.517 292.073 294.494 286.57C299.471 281.067 307.02 276.769 315.967 275.011C324.914 273.253 333.527 274.375 340.216 277.585C346.905 280.796 351.641 286.077 352.93 292.642C354.22 299.206 351.834 305.886 346.857 311.389C341.88 316.893 334.331 321.19 325.384 322.948Z" stroke="#B95F00"/>
<path d="M382.11 244.803C371.936 244.12 362.952 240.411 356.65 234.99C350.347 229.569 346.747 222.461 347.251 214.953C347.755 207.445 352.271 200.881 359.241 196.351C366.212 191.82 375.61 189.345 385.784 190.027C395.957 190.71 404.941 194.419 411.244 199.84C417.546 205.261 421.146 212.369 420.642 219.877C420.139 227.385 415.622 233.949 408.652 238.479C401.682 243.01 392.283 245.485 382.11 244.803Z" fill="#DD510E" stroke="#DB7517"/>
<path d="M383.453 232.488C373.28 231.806 364.296 228.097 357.993 222.676C351.691 217.255 348.091 210.147 348.595 202.638C349.098 195.13 353.615 188.567 360.585 184.036C367.555 179.506 376.954 177.03 387.127 177.713C397.301 178.395 406.285 182.104 412.588 187.525C418.89 192.946 422.49 200.054 421.986 207.562C421.482 215.071 416.966 221.634 409.996 226.165C403.026 230.695 393.627 233.171 383.453 232.488Z" fill="#FFB232" stroke="#DB7517"/>
<g filter="url(#filter25_i_3175_1812)">
<ellipse cx="24.9257" cy="33.3726" rx="24.9257" ry="33.3726" transform="matrix(-0.0669271 0.997791 -0.997723 -0.0669413 420.137 182.455)" fill="#FFB824"/>
</g>
<path d="M383.537 229.464C374.44 228.853 366.407 225.547 360.773 220.719C355.139 215.89 351.926 209.566 352.374 202.891C352.822 196.216 356.851 190.378 363.079 186.346C369.307 182.313 377.709 180.11 386.807 180.72C395.904 181.33 403.936 184.637 409.57 189.465C415.204 194.293 418.417 200.618 417.97 207.292C417.522 213.967 413.493 219.806 407.265 223.838C401.036 227.87 392.635 230.074 383.537 229.464Z" stroke="#B95F00"/>
<path d="M318.07 290.256C308.277 287.416 300.293 281.873 295.294 275.231C290.294 268.588 288.296 260.875 290.392 253.648C292.487 246.42 298.301 240.973 306.078 238.037C313.855 235.1 323.566 234.689 333.358 237.529C343.151 240.37 351.136 245.912 356.135 252.555C361.135 259.197 363.133 266.91 361.037 274.137C358.942 281.365 353.128 286.812 345.351 289.749C337.574 292.686 327.863 293.096 318.07 290.256Z" fill="#DD510E" stroke="#DB7517"/>
<path d="M322.016 278.513C312.223 275.673 304.239 270.13 299.239 263.488C294.24 256.846 292.241 249.133 294.337 241.905C296.432 234.678 302.247 229.231 310.023 226.294C317.8 223.357 327.511 222.947 337.304 225.787C347.097 228.627 355.081 234.17 360.08 240.812C365.08 247.454 367.078 255.167 364.983 262.395C362.887 269.622 357.073 275.069 349.296 278.006C341.519 280.943 331.809 281.354 322.016 278.513Z" fill="#FFB232" stroke="#DB7517"/>
<g filter="url(#filter26_i_3175_1812)">
<ellipse cx="24.9258" cy="33.3725" rx="24.9258" ry="33.3725" transform="matrix(-0.278485 0.960461 -0.960402 -0.278547 368.535 237.47)" fill="#FFB824"/>
</g>
<path d="M322.74 275.574C313.983 273.035 306.843 268.089 302.37 262.168C297.897 256.248 296.109 249.383 297.972 242.958C299.835 236.533 305.018 231.69 311.963 229.081C318.909 226.472 327.588 226.115 336.345 228.654C345.102 231.194 352.243 236.14 356.716 242.061C361.188 247.981 362.976 254.846 361.113 261.271C359.251 267.696 354.068 272.539 347.122 275.148C340.176 277.756 331.498 278.114 322.74 275.574Z" stroke="#B95F00"/>
<path d="M533.41 294.7C525.293 369.433 458.137 423.435 383.415 415.316C308.692 407.198 254.698 340.034 262.815 265.3C270.932 190.567 338.087 136.565 412.81 144.683C487.533 152.802 541.527 219.966 533.41 294.7Z" fill="url(#paint1_radial_3175_1812)" stroke="url(#paint2_linear_3175_1812)"/>
<path d="M533.41 294.7C525.293 369.433 458.137 423.435 383.415 415.316C308.692 407.198 254.698 340.034 262.815 265.3C270.932 190.567 338.087 136.565 412.81 144.683C487.533 152.802 541.527 219.966 533.41 294.7Z" fill="url(#paint3_radial_3175_1812)" stroke="url(#paint4_linear_3175_1812)"/>
<path fill-rule="evenodd" clip-rule="evenodd" d="M262.735 259.268C244.224 261.421 233.138 265.235 232.558 270.575C231.011 284.815 304.784 304.511 397.335 314.566C489.885 324.621 566.165 321.229 567.712 306.988C568.356 301.057 555.935 294.179 534.533 287.446C534.96 274.247 533.687 261.061 530.742 248.254C652.727 271.77 736.999 306.049 733.847 335.071C729.715 373.113 576.935 387.717 392.603 367.69C208.271 347.663 62.1905 300.588 66.3225 262.546C69.4018 234.196 155.037 218.863 274.763 221.179C269.118 233.254 265.072 246.073 262.735 259.268Z" fill="#2135A2"/>
<path fill-rule="evenodd" clip-rule="evenodd" d="M266.081 245.286C244.893 247.325 232.055 251.309 231.43 257.066C229.883 271.307 303.656 291.002 396.206 301.058C488.756 311.113 565.037 307.72 566.584 293.48C567.217 287.648 555.22 280.902 534.476 274.277C534.034 263.158 532.235 252.11 529.102 241.381C527.299 235.205 525.066 229.179 522.426 223.344C648.302 246.885 735.983 281.943 732.769 311.535C728.637 349.577 575.857 364.181 391.525 344.154C207.194 324.127 61.1128 277.053 65.2448 239.011C68.452 209.482 161.218 194.075 288.783 198.024C284.97 203.138 281.51 208.524 278.435 214.146C273.044 224.002 268.901 234.463 266.081 245.286Z" fill="#2948E8"/>
<g filter="url(#filter27_f_3175_1812)">
<path d="M534.488 283.603C527.963 220.954 478.514 169.158 413.367 162.08C338.37 153.932 270.968 208.132 262.821 283.14C262.474 286.329 262.241 289.503 262.116 292.66C261.13 283.188 261.124 273.467 262.195 263.616C270.342 188.608 337.743 134.407 412.741 142.556C484.55 150.358 537.286 212.491 534.488 283.603Z" fill="url(#paint5_radial_3175_1812)"/>
</g>
<g opacity="0.4" filter="url(#filter28_f_3175_1812)">
<path d="M264.803 270.257C271.328 332.906 320.777 384.702 385.924 391.78C460.921 399.928 528.323 345.728 536.47 270.72C536.817 267.532 537.05 264.357 537.175 261.2C538.161 270.672 538.167 280.393 537.096 290.244C528.949 365.252 461.548 419.453 386.55 411.305C314.741 403.503 262.005 341.369 264.803 270.257Z" fill="url(#paint6_radial_3175_1812)"/>
</g>
<path d="M331.662 322.196C204.932 311.253 103.17 276.768 104.369 245.172C105.569 213.577 209.277 196.835 336.008 207.779" stroke="url(#paint7_linear_3175_1812)"/>
<path d="M357.777 320.17C245.499 310.593 155.402 279.384 156.54 250.465C157.678 221.546 249.62 205.866 361.898 215.444" stroke="url(#paint8_linear_3175_1812)"/>
<path d="M457.645 332.259C569.701 344.159 664.081 330.613 668.449 302.003C672.817 273.393 585.519 240.553 473.464 228.653" stroke="url(#paint9_linear_3175_1812)"/>
<path d="M372.135 310.798C278.893 302.77 204.033 277.268 204.931 253.838C205.828 230.408 282.144 217.922 375.386 225.951" stroke="url(#paint10_linear_3175_1812)"/>
<path d="M445.326 320.333C538.397 330.142 616.735 319.307 620.298 296.132C623.861 272.957 551.3 246.218 458.228 236.409" stroke="url(#paint11_linear_3175_1812)"/>
<path fill-rule="evenodd" clip-rule="evenodd" d="M66.2122 263.622C66.1786 262.883 66.2714 262.142 66.4869 261.4C35.2101 272.503 17.8867 284.355 18.989 295.969C22.4024 331.934 201.226 351.996 418.403 340.778C635.579 329.56 808.868 291.311 805.455 255.346C802.627 225.55 679.41 206.67 513.732 207.447C514.036 208.089 514.237 208.755 514.334 209.445C579.717 209.156 638.438 211.934 685.687 217.235C721.773 221.284 751.077 226.794 771.524 233.495C781.758 236.848 789.66 240.464 795.07 244.27C800.513 248.1 803.118 251.893 803.464 255.535C803.806 259.141 801.976 263.104 797.348 267.42C792.736 271.72 785.617 276.103 776.122 280.473C757.155 289.204 729.188 297.671 694.219 305.389C624.314 320.819 526.813 333.176 418.299 338.781C309.786 344.386 210.9 342.173 138.758 334.079C102.671 330.031 73.3675 324.521 52.9197 317.82C42.6865 314.467 34.7839 310.85 29.3745 307.045C23.9307 303.214 21.3257 299.422 20.98 295.78C20.6378 292.174 22.4684 288.211 27.0965 283.895C31.7081 279.594 38.8271 275.212 48.3217 270.841C53.6021 268.411 59.58 266.001 66.2122 263.622Z" fill="white"/>
<path d="M659.488 222.608C655.431 222.159 651.913 220.521 649.502 218.26C647.091 215.998 645.809 213.139 646.132 210.216C646.455 207.292 648.331 204.782 651.177 203.102C654.024 201.422 657.815 200.592 661.872 201.041C665.93 201.489 669.448 203.127 671.859 205.388C674.269 207.65 675.552 210.509 675.229 213.433C674.906 216.356 673.03 218.866 670.183 220.546C667.337 222.226 663.546 223.056 659.488 222.608Z" fill="#DD510E" stroke="#DB7517"/>
<path d="M660.246 217.635C656.189 217.186 652.671 215.548 650.26 213.287C647.849 211.025 646.566 208.166 646.889 205.243C647.213 202.319 649.089 199.809 651.935 198.129C654.782 196.449 658.572 195.619 662.63 196.068C666.688 196.516 670.206 198.154 672.616 200.415C675.027 202.677 676.31 205.536 675.987 208.46C675.664 211.383 673.788 213.893 670.941 215.573C668.095 217.253 664.304 218.083 660.246 217.635Z" fill="#FFB232" stroke="#DB7517"/>
<g filter="url(#filter29_i_3175_1812)">
<ellipse cx="10.1217" cy="13.5509" rx="10.1217" ry="13.5509" transform="matrix(-0.109857 0.993947 -0.993944 -0.109887 675.973 198.275)" fill="#FFB824"/>
</g>
<path d="M660.335 216.409C656.712 216.009 653.573 214.551 651.423 212.542C649.273 210.532 648.134 207.998 648.42 205.412C648.706 202.826 650.371 200.601 652.908 199.11C655.444 197.619 658.826 196.882 662.449 197.282C666.072 197.683 669.211 199.141 671.361 201.15C673.511 203.16 674.65 205.694 674.364 208.28C674.078 210.866 672.413 213.09 669.876 214.582C667.339 216.073 663.958 216.81 660.335 216.409Z" stroke="#B95F00"/>
<g filter="url(#filter30_i_3175_1812)">
<ellipse cx="9.35764" cy="9.46196" rx="9.35764" ry="9.46196" transform="matrix(-0.109857 0.993947 -0.993944 -0.109887 125.82 324.939)" fill="#FFB824"/>
</g>
<path d="M114.415 342.004C109.49 341.46 105.943 337.072 106.48 332.215C107.017 327.358 111.436 323.851 116.361 324.396C121.286 324.94 124.832 329.328 124.295 334.185C123.759 339.042 119.339 342.548 114.415 342.004Z" stroke="#B95F00"/>
<path d="M613.277 348.924C596.886 350.665 582.326 341.839 580.51 329.488C578.694 317.137 590.251 305.538 606.642 303.798C623.032 302.058 637.593 310.883 639.409 323.234C641.225 335.585 629.668 347.184 613.277 348.924Z" fill="#DD510E" stroke="#DB7517"/>
<path d="M612.191 338.667C595.8 340.407 581.24 331.581 579.424 319.23C577.608 306.879 589.165 295.28 605.556 293.54C621.946 291.8 636.507 300.626 638.323 312.977C640.139 325.328 628.582 336.927 612.191 338.667Z" fill="#FFB232" stroke="#DB7517"/>
<g filter="url(#filter31_i_3175_1812)">
<ellipse cx="20.7843" cy="26.9605" rx="20.7843" ry="26.9605" transform="matrix(0.145482 0.98941 -0.994359 0.105573 632.559 292.705)" fill="#FFB824"/>
</g>
<path d="M611.725 336.185C597.066 337.742 584.076 329.881 582.463 318.909C580.849 307.937 591.164 297.602 605.823 296.046C620.482 294.49 633.472 302.35 635.085 313.322C636.699 324.294 626.384 334.629 611.725 336.185Z" stroke="#B95F00"/>
<defs>
<filter id="filter0_i_3175_1812" x="311.298" y="545.076" width="118.014" height="152.369" filterUnits="userSpaceOnUse" color-interpolation-filters="sRGB">
<feFlood flood-opacity="0" result="BackgroundImageFix"/>
<feBlend mode="normal" in="SourceGraphic" in2="BackgroundImageFix" result="shape"/>
<feColorMatrix in="SourceAlpha" type="matrix" values="0 0 0 0 0 0 0 0 0 0 0 0 0 0 0 0 0 0 127 0" result="hardAlpha"/>
<feOffset dx="-2" dy="-3"/>
<feComposite in2="hardAlpha" operator="arithmetic" k2="-1" k3="1"/>
<feColorMatrix type="matrix" values="0 0 0 0 0 0 0 0 0 0 0 0 0 0 0 0 0 0 0.25 0"/>
<feBlend mode="normal" in2="shape" result="effect1_innerShadow_3175_1812"/>
</filter>
<filter id="filter1_d_3175_1812" x="339.863" y="450.473" width="127.416" height="127.146" filterUnits="userSpaceOnUse" color-interpolation-filters="sRGB">
<feFlood flood-opacity="0" result="BackgroundImageFix"/>
<feColorMatrix in="SourceAlpha" type="matrix" values="0 0 0 0 0 0 0 0 0 0 0 0 0 0 0 0 0 0 127 0" result="hardAlpha"/>
<feOffset dx="2" dy="5"/>
<feComposite in2="hardAlpha" operator="out"/>
<feColorMatrix type="matrix" values="0 0 0 0 0.301961 0 0 0 0 0.227451 0 0 0 0 0.529412 0 0 0 0.4 0"/>
<feBlend mode="normal" in2="BackgroundImageFix" result="effect1_dropShadow_3175_1812"/>
<feBlend mode="normal" in="SourceGraphic" in2="effect1_dropShadow_3175_1812" result="shape"/>
</filter>
<filter id="filter2_i_3175_1812" x="340.138" y="457.645" width="106.114" height="108.32" filterUnits="userSpaceOnUse" color-interpolation-filters="sRGB">
<feFlood flood-opacity="0" result="BackgroundImageFix"/>
<feBlend mode="normal" in="SourceGraphic" in2="BackgroundImageFix" result="shape"/>
<feColorMatrix in="SourceAlpha" type="matrix" values="0 0 0 0 0 0 0 0 0 0 0 0 0 0 0 0 0 0 127 0" result="hardAlpha"/>
<feOffset dx="-1" dy="-18"/>
<feComposite in2="hardAlpha" operator="arithmetic" k2="-1" k3="1"/>
<feColorMatrix type="matrix" values="0 0 0 0 0.0588441 0 0 0 0 0.00156952 0 0 0 0 0.251123 0 0 0 1 0"/>
<feBlend mode="normal" in2="shape" result="effect1_innerShadow_3175_1812"/>
</filter>
<filter id="filter3_i_3175_1812" x="429.359" y="523.084" width="41.0371" height="46.4062" filterUnits="userSpaceOnUse" color-interpolation-filters="sRGB">
<feFlood flood-opacity="0" result="BackgroundImageFix"/>
<feBlend mode="normal" in="SourceGraphic" in2="BackgroundImageFix" result="shape"/>
<feColorMatrix in="SourceAlpha" type="matrix" values="0 0 0 0 0 0 0 0 0 0 0 0 0 0 0 0 0 0 127 0" result="hardAlpha"/>
<feOffset dy="-7"/>
<feComposite in2="hardAlpha" operator="arithmetic" k2="-1" k3="1"/>
<feColorMatrix type="matrix" values="0 0 0 0 0.278431 0 0 0 0 0.203922 0 0 0 0 0.517647 0 0 0 0.5 0"/>
<feBlend mode="normal" in2="shape" result="effect1_innerShadow_3175_1812"/>
</filter>
<filter id="filter4_i_3175_1812" x="438.993" y="530.821" width="30.9092" height="37.4133" filterUnits="userSpaceOnUse" color-interpolation-filters="sRGB">
<feFlood flood-opacity="0" result="BackgroundImageFix"/>
<feBlend mode="normal" in="SourceGraphic" in2="BackgroundImageFix" result="shape"/>
<feColorMatrix in="SourceAlpha" type="matrix" values="0 0 0 0 0 0 0 0 0 0 0 0 0 0 0 0 0 0 127 0" result="hardAlpha"/>
<feOffset dy="-7"/>
<feComposite in2="hardAlpha" operator="arithmetic" k2="-1" k3="1"/>
<feColorMatrix type="matrix" values="0 0 0 0 0.278431 0 0 0 0 0.203922 0 0 0 0 0.517647 0 0 0 0.5 0"/>
<feBlend mode="normal" in2="shape" result="effect1_innerShadow_3175_1812"/>
</filter>
<filter id="filter5_i_3175_1812" x="366.084" y="583.823" width="23.6572" height="29.4547" filterUnits="userSpaceOnUse" color-interpolation-filters="sRGB">
<feFlood flood-opacity="0" result="BackgroundImageFix"/>
<feBlend mode="normal" in="SourceGraphic" in2="BackgroundImageFix" result="shape"/>
<feColorMatrix in="SourceAlpha" type="matrix" values="0 0 0 0 0 0 0 0 0 0 0 0 0 0 0 0 0 0 127 0" result="hardAlpha"/>
<feOffset dx="2" dy="-7"/>
<feComposite in2="hardAlpha" operator="arithmetic" k2="-1" k3="1"/>
<feColorMatrix type="matrix" values="0 0 0 0 0.309804 0 0 0 0 0.235294 0 0 0 0 0.529412 0 0 0 0.51 0"/>
<feBlend mode="normal" in2="shape" result="effect1_innerShadow_3175_1812"/>
</filter>
<filter id="filter6_i_3175_1812" x="337.244" y="569.48" width="44.2363" height="40.8738" filterUnits="userSpaceOnUse" color-interpolation-filters="sRGB">
<feFlood flood-opacity="0" result="BackgroundImageFix"/>
<feBlend mode="normal" in="SourceGraphic" in2="BackgroundImageFix" result="shape"/>
<feColorMatrix in="SourceAlpha" type="matrix" values="0 0 0 0 0 0 0 0 0 0 0 0 0 0 0 0 0 0 127 0" result="hardAlpha"/>
<feOffset dx="2" dy="-7"/>
<feComposite in2="hardAlpha" operator="arithmetic" k2="-1" k3="1"/>
<feColorMatrix type="matrix" values="0 0 0 0 0.309804 0 0 0 0 0.235294 0 0 0 0 0.529412 0 0 0 0.51 0"/>
<feBlend mode="normal" in2="shape" result="effect1_innerShadow_3175_1812"/>
</filter>
<filter id="filter7_i_3175_1812" x="571.583" y="470.154" width="39.6748" height="47.3964" filterUnits="userSpaceOnUse" color-interpolation-filters="sRGB">
<feFlood flood-opacity="0" result="BackgroundImageFix"/>
<feBlend mode="normal" in="SourceGraphic" in2="BackgroundImageFix" result="shape"/>
<feColorMatrix in="SourceAlpha" type="matrix" values="0 0 0 0 0 0 0 0 0 0 0 0 0 0 0 0 0 0 127 0" result="hardAlpha"/>
<feOffset dx="5" dy="-2"/>
<feComposite in2="hardAlpha" operator="arithmetic" k2="-1" k3="1"/>
<feColorMatrix type="matrix" values="0 0 0 0 0.858824 0 0 0 0 0.459137 0 0 0 0 0.0901961 0 0 0 1 0"/>
<feBlend mode="normal" in2="shape" result="effect1_innerShadow_3175_1812"/>
</filter>
<filter id="filter8_i_3175_1812" x="583.274" y="482.891" width="19.6924" height="19.2971" filterUnits="userSpaceOnUse" color-interpolation-filters="sRGB">
<feFlood flood-opacity="0" result="BackgroundImageFix"/>
<feBlend mode="normal" in="SourceGraphic" in2="BackgroundImageFix" result="shape"/>
<feColorMatrix in="SourceAlpha" type="matrix" values="0 0 0 0 0 0 0 0 0 0 0 0 0 0 0 0 0 0 127 0" result="hardAlpha"/>
<feOffset dx="5" dy="-2"/>
<feComposite in2="hardAlpha" operator="arithmetic" k2="-1" k3="1"/>
<feColorMatrix type="matrix" values="0 0 0 0 0.858824 0 0 0 0 0.459137 0 0 0 0 0.0901961 0 0 0 1 0"/>
<feBlend mode="normal" in2="shape" result="effect1_innerShadow_3175_1812"/>
</filter>
<filter id="filter9_i_3175_1812" x="168.943" y="636.484" width="45.8516" height="38.0542" filterUnits="userSpaceOnUse" color-interpolation-filters="sRGB">
<feFlood flood-opacity="0" result="BackgroundImageFix"/>
<feBlend mode="normal" in="SourceGraphic" in2="BackgroundImageFix" result="shape"/>
<feColorMatrix in="SourceAlpha" type="matrix" values="0 0 0 0 0 0 0 0 0 0 0 0 0 0 0 0 0 0 127 0" result="hardAlpha"/>
<feOffset dx="5" dy="-2"/>
<feComposite in2="hardAlpha" operator="arithmetic" k2="-1" k3="1"/>
<feColorMatrix type="matrix" values="0 0 0 0 0.858824 0 0 0 0 0.459137 0 0 0 0 0.0901961 0 0 0 1 0"/>
<feBlend mode="normal" in2="shape" result="effect1_innerShadow_3175_1812"/>
</filter>
<filter id="filter10_i_3175_1812" x="183.683" y="647.817" width="18.709" height="18.8984" filterUnits="userSpaceOnUse" color-interpolation-filters="sRGB">
<feFlood flood-opacity="0" result="BackgroundImageFix"/>
<feBlend mode="normal" in="SourceGraphic" in2="BackgroundImageFix" result="shape"/>
<feColorMatrix in="SourceAlpha" type="matrix" values="0 0 0 0 0 0 0 0 0 0 0 0 0 0 0 0 0 0 127 0" result="hardAlpha"/>
<feOffset dx="5" dy="-2"/>
<feComposite in2="hardAlpha" operator="arithmetic" k2="-1" k3="1"/>
<feColorMatrix type="matrix" values="0 0 0 0 0.858824 0 0 0 0 0.459137 0 0 0 0 0.0901961 0 0 0 1 0"/>
<feBlend mode="normal" in2="shape" result="effect1_innerShadow_3175_1812"/>
</filter>
<filter id="filter11_i_3175_1812" x="244.493" y="458.536" width="22.8887" height="21.2754" filterUnits="userSpaceOnUse" color-interpolation-filters="sRGB">
<feFlood flood-opacity="0" result="BackgroundImageFix"/>
<feBlend mode="normal" in="SourceGraphic" in2="BackgroundImageFix" result="shape"/>
<feColorMatrix in="SourceAlpha" type="matrix" values="0 0 0 0 0 0 0 0 0 0 0 0 0 0 0 0 0 0 127 0" result="hardAlpha"/>
<feOffset dx="5" dy="-2"/>
<feComposite in2="hardAlpha" operator="arithmetic" k2="-1" k3="1"/>
<feColorMatrix type="matrix" values="0 0 0 0 0.858824 0 0 0 0 0.459137 0 0 0 0 0.0901961 0 0 0 1 0"/>
<feBlend mode="normal" in2="shape" result="effect1_innerShadow_3175_1812"/>
</filter>
<filter id="filter12_i_3175_1812" x="492.438" y="664.33" width="17.2012" height="17.2031" filterUnits="userSpaceOnUse" color-interpolation-filters="sRGB">
<feFlood flood-opacity="0" result="BackgroundImageFix"/>
<feBlend mode="normal" in="SourceGraphic" in2="BackgroundImageFix" result="shape"/>
<feColorMatrix in="SourceAlpha" type="matrix" values="0 0 0 0 0 0 0 0 0 0 0 0 0 0 0 0 0 0 127 0" result="hardAlpha"/>
<feOffset dy="-4"/>
<feComposite in2="hardAlpha" operator="arithmetic" k2="-1" k3="1"/>
<feColorMatrix type="matrix" values="0 0 0 0 0.866667 0 0 0 0 0.317647 0 0 0 0 0.054902 0 0 0 1 0"/>
<feBlend mode="normal" in2="shape" result="effect1_innerShadow_3175_1812"/>
</filter>
<filter id="filter13_i_3175_1812" x="313.526" y="756.128" width="17.167" height="16.9819" filterUnits="userSpaceOnUse" color-interpolation-filters="sRGB">
<feFlood flood-opacity="0" result="BackgroundImageFix"/>
<feBlend mode="normal" in="SourceGraphic" in2="BackgroundImageFix" result="shape"/>
<feColorMatrix in="SourceAlpha" type="matrix" values="0 0 0 0 0 0 0 0 0 0 0 0 0 0 0 0 0 0 127 0" result="hardAlpha"/>
<feOffset dx="1" dy="-2"/>
<feComposite in2="hardAlpha" operator="arithmetic" k2="-1" k3="1"/>
<feColorMatrix type="matrix" values="0 0 0 0 0.858824 0 0 0 0 0.459137 0 0 0 0 0.0901961 0 0 0 1 0"/>
<feBlend mode="normal" in2="shape" result="effect1_innerShadow_3175_1812"/>
</filter>
<filter id="filter14_i_3175_1812" x="405.097" y="335.689" width="66.7412" height="49.855" filterUnits="userSpaceOnUse" color-interpolation-filters="sRGB">
<feFlood flood-opacity="0" result="BackgroundImageFix"/>
<feBlend mode="normal" in="SourceGraphic" in2="BackgroundImageFix" result="shape"/>
<feColorMatrix in="SourceAlpha" type="matrix" values="0 0 0 0 0 0 0 0 0 0 0 0 0 0 0 0 0 0 127 0" result="hardAlpha"/>
<feOffset dx="5" dy="-2"/>
<feComposite in2="hardAlpha" operator="arithmetic" k2="-1" k3="1"/>
<feColorMatrix type="matrix" values="0 0 0 0 0.858824 0 0 0 0 0.459137 0 0 0 0 0.0901961 0 0 0 1 0"/>
<feBlend mode="normal" in2="shape" result="effect1_innerShadow_3175_1812"/>
</filter>
<filter id="filter15_i_3175_1812" x="421.842" y="289.077" width="66.3652" height="50.3743" filterUnits="userSpaceOnUse" color-interpolation-filters="sRGB">
<feFlood flood-opacity="0" result="BackgroundImageFix"/>
<feBlend mode="normal" in="SourceGraphic" in2="BackgroundImageFix" result="shape"/>
<feColorMatrix in="SourceAlpha" type="matrix" values="0 0 0 0 0 0 0 0 0 0 0 0 0 0 0 0 0 0 127 0" result="hardAlpha"/>
<feOffset dx="5" dy="-2"/>
<feComposite in2="hardAlpha" operator="arithmetic" k2="-1" k3="1"/>
<feColorMatrix type="matrix" values="0 0 0 0 0.858824 0 0 0 0 0.459137 0 0 0 0 0.0901961 0 0 0 1 0"/>
<feBlend mode="normal" in2="shape" result="effect1_innerShadow_3175_1812"/>
</filter>
<filter id="filter16_i_3175_1812" x="412.057" y="257.616" width="66.3652" height="50.3743" filterUnits="userSpaceOnUse" color-interpolation-filters="sRGB">
<feFlood flood-opacity="0" result="BackgroundImageFix"/>
<feBlend mode="normal" in="SourceGraphic" in2="BackgroundImageFix" result="shape"/>
<feColorMatrix in="SourceAlpha" type="matrix" values="0 0 0 0 0 0 0 0 0 0 0 0 0 0 0 0 0 0 127 0" result="hardAlpha"/>
<feOffset dx="5" dy="-2"/>
<feComposite in2="hardAlpha" operator="arithmetic" k2="-1" k3="1"/>
<feColorMatrix type="matrix" values="0 0 0 0 0.858824 0 0 0 0 0.459137 0 0 0 0 0.0901961 0 0 0 1 0"/>
<feBlend mode="normal" in2="shape" result="effect1_innerShadow_3175_1812"/>
</filter>
<filter id="filter17_i_3175_1812" x="410.179" y="215.215" width="66.1816" height="50.6213" filterUnits="userSpaceOnUse" color-interpolation-filters="sRGB">
<feFlood flood-opacity="0" result="BackgroundImageFix"/>
<feBlend mode="normal" in="SourceGraphic" in2="BackgroundImageFix" result="shape"/>
<feColorMatrix in="SourceAlpha" type="matrix" values="0 0 0 0 0 0 0 0 0 0 0 0 0 0 0 0 0 0 127 0" result="hardAlpha"/>
<feOffset dx="5" dy="-2"/>
<feComposite in2="hardAlpha" operator="arithmetic" k2="-1" k3="1"/>
<feColorMatrix type="matrix" values="0 0 0 0 0.858824 0 0 0 0 0.459137 0 0 0 0 0.0901961 0 0 0 1 0"/>
<feBlend mode="normal" in2="shape" result="effect1_innerShadow_3175_1812"/>
</filter>
<filter id="filter18_i_3175_1812" x="379.441" y="323.59" width="66.3232" height="50.4301" filterUnits="userSpaceOnUse" color-interpolation-filters="sRGB">
<feFlood flood-opacity="0" result="BackgroundImageFix"/>
<feBlend mode="normal" in="SourceGraphic" in2="BackgroundImageFix" result="shape"/>
<feColorMatrix in="SourceAlpha" type="matrix" values="0 0 0 0 0 0 0 0 0 0 0 0 0 0 0 0 0 0 127 0" result="hardAlpha"/>
<feOffset dx="5" dy="-2"/>
<feComposite in2="hardAlpha" operator="arithmetic" k2="-1" k3="1"/>
<feColorMatrix type="matrix" values="0 0 0 0 0.858824 0 0 0 0 0.459137 0 0 0 0 0.0901961 0 0 0 1 0"/>
<feBlend mode="normal" in2="shape" result="effect1_innerShadow_3175_1812"/>
</filter>
<filter id="filter19_i_3175_1812" x="367.037" y="282.424" width="66.5098" height="50.1779" filterUnits="userSpaceOnUse" color-interpolation-filters="sRGB">
<feFlood flood-opacity="0" result="BackgroundImageFix"/>
<feBlend mode="normal" in="SourceGraphic" in2="BackgroundImageFix" result="shape"/>
<feColorMatrix in="SourceAlpha" type="matrix" values="0 0 0 0 0 0 0 0 0 0 0 0 0 0 0 0 0 0 127 0" result="hardAlpha"/>
<feOffset dx="5" dy="-2"/>
<feComposite in2="hardAlpha" operator="arithmetic" k2="-1" k3="1"/>
<feColorMatrix type="matrix" values="0 0 0 0 0.858824 0 0 0 0 0.459137 0 0 0 0 0.0901961 0 0 0 1 0"/>
<feBlend mode="normal" in2="shape" result="effect1_innerShadow_3175_1812"/>
</filter>
<filter id="filter20_i_3175_1812" x="347.907" y="257.211" width="66.6777" height="49.9447" filterUnits="userSpaceOnUse" color-interpolation-filters="sRGB">
<feFlood flood-opacity="0" result="BackgroundImageFix"/>
<feBlend mode="normal" in="SourceGraphic" in2="BackgroundImageFix" result="shape"/>
<feColorMatrix in="SourceAlpha" type="matrix" values="0 0 0 0 0 0 0 0 0 0 0 0 0 0 0 0 0 0 127 0" result="hardAlpha"/>
<feOffset dx="5" dy="-2"/>
<feComposite in2="hardAlpha" operator="arithmetic" k2="-1" k3="1"/>
<feColorMatrix type="matrix" values="0 0 0 0 0.858824 0 0 0 0 0.459137 0 0 0 0 0.0901961 0 0 0 1 0"/>
<feBlend mode="normal" in2="shape" result="effect1_innerShadow_3175_1812"/>
</filter>
<filter id="filter21_i_3175_1812" x="354.835" y="229.818" width="63.2041" height="54.2933" filterUnits="userSpaceOnUse" color-interpolation-filters="sRGB">
<feFlood flood-opacity="0" result="BackgroundImageFix"/>
<feBlend mode="normal" in="SourceGraphic" in2="BackgroundImageFix" result="shape"/>
<feColorMatrix in="SourceAlpha" type="matrix" values="0 0 0 0 0 0 0 0 0 0 0 0 0 0 0 0 0 0 127 0" result="hardAlpha"/>
<feOffset dx="5" dy="-2"/>
<feComposite in2="hardAlpha" operator="arithmetic" k2="-1" k3="1"/>
<feColorMatrix type="matrix" values="0 0 0 0 0.858824 0 0 0 0 0.459137 0 0 0 0 0.0901961 0 0 0 1 0"/>
<feBlend mode="normal" in2="shape" result="effect1_innerShadow_3175_1812"/>
</filter>
<filter id="filter22_i_3175_1812" x="344.434" y="329.786" width="55.7061" height="61.9585" filterUnits="userSpaceOnUse" color-interpolation-filters="sRGB">
<feFlood flood-opacity="0" result="BackgroundImageFix"/>
<feBlend mode="normal" in="SourceGraphic" in2="BackgroundImageFix" result="shape"/>
<feColorMatrix in="SourceAlpha" type="matrix" values="0 0 0 0 0 0 0 0 0 0 0 0 0 0 0 0 0 0 127 0" result="hardAlpha"/>
<feOffset dx="5" dy="-2"/>
<feComposite in2="hardAlpha" operator="arithmetic" k2="-1" k3="1"/>
<feColorMatrix type="matrix" values="0 0 0 0 0.858824 0 0 0 0 0.459137 0 0 0 0 0.0901961 0 0 0 1 0"/>
<feBlend mode="normal" in2="shape" result="effect1_innerShadow_3175_1812"/>
</filter>
<filter id="filter23_i_3175_1812" x="317.819" y="315.536" width="63.2041" height="54.2933" filterUnits="userSpaceOnUse" color-interpolation-filters="sRGB">
<feFlood flood-opacity="0" result="BackgroundImageFix"/>
<feBlend mode="normal" in="SourceGraphic" in2="BackgroundImageFix" result="shape"/>
<feColorMatrix in="SourceAlpha" type="matrix" values="0 0 0 0 0 0 0 0 0 0 0 0 0 0 0 0 0 0 127 0" result="hardAlpha"/>
<feOffset dx="5" dy="-2"/>
<feComposite in2="hardAlpha" operator="arithmetic" k2="-1" k3="1"/>
<feColorMatrix type="matrix" values="0 0 0 0 0.858824 0 0 0 0 0.459137 0 0 0 0 0.0901961 0 0 0 1 0"/>
<feBlend mode="normal" in2="shape" result="effect1_innerShadow_3175_1812"/>
</filter>
<filter id="filter24_i_3175_1812" x="287.575" y="273.682" width="66.2012" height="50.5947" filterUnits="userSpaceOnUse" color-interpolation-filters="sRGB">
<feFlood flood-opacity="0" result="BackgroundImageFix"/>
<feBlend mode="normal" in="SourceGraphic" in2="BackgroundImageFix" result="shape"/>
<feColorMatrix in="SourceAlpha" type="matrix" values="0 0 0 0 0 0 0 0 0 0 0 0 0 0 0 0 0 0 127 0" result="hardAlpha"/>
<feOffset dx="5" dy="-2"/>
<feComposite in2="hardAlpha" operator="arithmetic" k2="-1" k3="1"/>
<feColorMatrix type="matrix" values="0 0 0 0 0.858824 0 0 0 0 0.459137 0 0 0 0 0.0901961 0 0 0 1 0"/>
<feBlend mode="normal" in2="shape" result="effect1_innerShadow_3175_1812"/>
</filter>
<filter id="filter25_i_3175_1812" x="351.833" y="180.119" width="66.6777" height="49.9447" filterUnits="userSpaceOnUse" color-interpolation-filters="sRGB">
<feFlood flood-opacity="0" result="BackgroundImageFix"/>
<feBlend mode="normal" in="SourceGraphic" in2="BackgroundImageFix" result="shape"/>
<feColorMatrix in="SourceAlpha" type="matrix" values="0 0 0 0 0 0 0 0 0 0 0 0 0 0 0 0 0 0 127 0" result="hardAlpha"/>
<feOffset dx="5" dy="-2"/>
<feComposite in2="hardAlpha" operator="arithmetic" k2="-1" k3="1"/>
<feColorMatrix type="matrix" values="0 0 0 0 0.858824 0 0 0 0 0.459137 0 0 0 0 0.0901961 0 0 0 1 0"/>
<feBlend mode="normal" in2="shape" result="effect1_innerShadow_3175_1812"/>
</filter>
<filter id="filter26_i_3175_1812" x="296.742" y="226.426" width="65.6016" height="51.3771" filterUnits="userSpaceOnUse" color-interpolation-filters="sRGB">
<feFlood flood-opacity="0" result="BackgroundImageFix"/>
<feBlend mode="normal" in="SourceGraphic" in2="BackgroundImageFix" result="shape"/>
<feColorMatrix in="SourceAlpha" type="matrix" values="0 0 0 0 0 0 0 0 0 0 0 0 0 0 0 0 0 0 127 0" result="hardAlpha"/>
<feOffset dx="5" dy="-2"/>
<feComposite in2="hardAlpha" operator="arithmetic" k2="-1" k3="1"/>
<feColorMatrix type="matrix" values="0 0 0 0 0.858824 0 0 0 0 0.459137 0 0 0 0 0.0901961 0 0 0 1 0"/>
<feBlend mode="normal" in2="shape" result="effect1_innerShadow_3175_1812"/>
</filter>
<filter id="filter27_f_3175_1812" x="239.484" y="119.845" width="317.011" height="194.715" filterUnits="userSpaceOnUse" color-interpolation-filters="sRGB">
<feFlood flood-opacity="0" result="BackgroundImageFix"/>
<feBlend mode="normal" in="SourceGraphic" in2="BackgroundImageFix" result="shape"/>
<feGaussianBlur stdDeviation="10.95" result="effect1_foregroundBlur_3175_1812"/>
</filter>
<filter id="filter28_f_3175_1812" x="232.596" y="229.1" width="337.411" height="215.115" filterUnits="userSpaceOnUse" color-interpolation-filters="sRGB">
<feFlood flood-opacity="0" result="BackgroundImageFix"/>
<feBlend mode="normal" in="SourceGraphic" in2="BackgroundImageFix" result="shape"/>
<feGaussianBlur stdDeviation="16.05" result="effect1_foregroundBlur_3175_1812"/>
</filter>
<filter id="filter29_i_3175_1812" x="647.876" y="196.675" width="27.0312" height="20.3428" filterUnits="userSpaceOnUse" color-interpolation-filters="sRGB">
<feFlood flood-opacity="0" result="BackgroundImageFix"/>
<feBlend mode="normal" in="SourceGraphic" in2="BackgroundImageFix" result="shape"/>
<feColorMatrix in="SourceAlpha" type="matrix" values="0 0 0 0 0 0 0 0 0 0 0 0 0 0 0 0 0 0 127 0" result="hardAlpha"/>
<feOffset dx="5" dy="-2"/>
<feComposite in2="hardAlpha" operator="arithmetic" k2="-1" k3="1"/>
<feColorMatrix type="matrix" values="0 0 0 0 0.858824 0 0 0 0 0.459137 0 0 0 0 0.0901961 0 0 0 1 0"/>
<feBlend mode="normal" in2="shape" result="effect1_innerShadow_3175_1812"/>
</filter>
<filter id="filter30_i_3175_1812" x="105.926" y="323.84" width="18.9238" height="18.7195" filterUnits="userSpaceOnUse" color-interpolation-filters="sRGB">
<feFlood flood-opacity="0" result="BackgroundImageFix"/>
<feBlend mode="normal" in="SourceGraphic" in2="BackgroundImageFix" result="shape"/>
<feColorMatrix in="SourceAlpha" type="matrix" values="0 0 0 0 0 0 0 0 0 0 0 0 0 0 0 0 0 0 127 0" result="hardAlpha"/>
<feOffset dx="5" dy="-2"/>
<feComposite in2="hardAlpha" operator="arithmetic" k2="-1" k3="1"/>
<feColorMatrix type="matrix" values="0 0 0 0 0.858824 0 0 0 0 0.459137 0 0 0 0 0.0901961 0 0 0 1 0"/>
<feBlend mode="normal" in2="shape" result="effect1_innerShadow_3175_1812"/>
</filter>
<filter id="filter31_i_3175_1812" x="581.793" y="295.353" width="53.9619" height="41.5256" filterUnits="userSpaceOnUse" color-interpolation-filters="sRGB">
<feFlood flood-opacity="0" result="BackgroundImageFix"/>
<feBlend mode="normal" in="SourceGraphic" in2="BackgroundImageFix" result="shape"/>
<feColorMatrix in="SourceAlpha" type="matrix" values="0 0 0 0 0 0 0 0 0 0 0 0 0 0 0 0 0 0 127 0" result="hardAlpha"/>
<feOffset dx="5" dy="-2"/>
<feComposite in2="hardAlpha" operator="arithmetic" k2="-1" k3="1"/>
<feColorMatrix type="matrix" values="0 0 0 0 0.858824 0 0 0 0 0.459137 0 0 0 0 0.0901961 0 0 0 1 0"/>
<feBlend mode="normal" in2="shape" result="effect1_innerShadow_3175_1812"/>
</filter>
<linearGradient id="paint0_linear_3175_1812" x1="433.203" y1="303.64" x2="433.203" y2="591.002" gradientUnits="userSpaceOnUse">
<stop offset="0.2" stop-color="#FFF492" stop-opacity="0.43"/>
<stop offset="1" stop-color="#36321C" stop-opacity="0"/>
</linearGradient>
<radialGradient id="paint1_radial_3175_1812" cx="0" cy="0" r="1" gradientUnits="userSpaceOnUse" gradientTransform="translate(403.629 158.537) rotate(90.2374) scale(258.706 972.769)">
<stop stop-color="white" stop-opacity="0.47"/>
<stop offset="0.515" stop-color="white" stop-opacity="0"/>
<stop offset="1" stop-color="white" stop-opacity="0.32"/>
</radialGradient>
<linearGradient id="paint2_linear_3175_1812" x1="412.864" y1="144.186" x2="383.353" y2="415.813" gradientUnits="userSpaceOnUse">
<stop stop-color="white" stop-opacity="0.65"/>
<stop offset="1" stop-color="#999999" stop-opacity="0.17"/>
</linearGradient>
<radialGradient id="paint3_radial_3175_1812" cx="0" cy="0" r="1" gradientUnits="userSpaceOnUse" gradientTransform="translate(403.629 158.537) rotate(93.868) scale(276.651 1040.24)">
<stop stop-color="white" stop-opacity="0.47"/>
<stop offset="0.565" stop-color="white" stop-opacity="0"/>
<stop offset="0.978094" stop-color="white" stop-opacity="0"/>
</radialGradient>
<linearGradient id="paint4_linear_3175_1812" x1="412.864" y1="144.186" x2="383.353" y2="415.813" gradientUnits="userSpaceOnUse">
<stop stop-color="white" stop-opacity="0.65"/>
<stop offset="1" stop-color="#999999" stop-opacity="0.17"/>
</linearGradient>
<radialGradient id="paint5_radial_3175_1812" cx="0" cy="0" r="1" gradientUnits="userSpaceOnUse" gradientTransform="translate(378.875 134.724) rotate(90.2378) scale(189.742 720.845)">
<stop stop-color="white" stop-opacity="0.47"/>
<stop offset="1" stop-color="white" stop-opacity="0"/>
</radialGradient>
<radialGradient id="paint6_radial_3175_1812" cx="0" cy="0" r="1" gradientUnits="userSpaceOnUse" gradientTransform="translate(420.416 419.136) rotate(-89.7622) scale(189.742 720.845)">
<stop stop-color="white" stop-opacity="0.47"/>
<stop offset="1" stop-color="white" stop-opacity="0"/>
</radialGradient>
<linearGradient id="paint7_linear_3175_1812" x1="81.0982" y1="235.137" x2="277.45" y2="238.076" gradientUnits="userSpaceOnUse">
<stop stop-color="white"/>
<stop offset="1" stop-color="#999999" stop-opacity="0"/>
</linearGradient>
<linearGradient id="paint8_linear_3175_1812" x1="135.942" y1="241.361" x2="252.201" y2="260.341" gradientUnits="userSpaceOnUse">
<stop stop-color="white"/>
<stop offset="1" stop-color="#999999" stop-opacity="0"/>
</linearGradient>
<linearGradient id="paint9_linear_3175_1812" x1="690.401" y1="296.972" x2="625.247" y2="297.861" gradientUnits="userSpaceOnUse">
<stop stop-color="white"/>
<stop offset="1" stop-color="#999999" stop-opacity="0"/>
</linearGradient>
<linearGradient id="paint10_linear_3175_1812" x1="187.813" y1="246.412" x2="260.79" y2="263.16" gradientUnits="userSpaceOnUse">
<stop stop-color="white"/>
<stop offset="1" stop-color="#2948E8" stop-opacity="0"/>
</linearGradient>
<linearGradient id="paint11_linear_3175_1812" x1="638.513" y1="292.089" x2="563.685" y2="294.69" gradientUnits="userSpaceOnUse">
<stop stop-color="white"/>
<stop offset="1" stop-color="#2948E8" stop-opacity="0"/>
</linearGradient>
</defs>
</svg>
