<svg width="222" height="170" viewBox="0 0 222 170" fill="none" xmlns="http://www.w3.org/2000/svg">
<g filter="url(#filter0_i_3175_2024)">
<ellipse cx="142.593" cy="9.76997" rx="8.79011" ry="8.88933" transform="rotate(96.3079 142.593 9.76997)" fill="#F68CD0"/>
</g>
<path d="M141.682 18.0099C137.072 17.5002 133.752 13.3938 134.255 8.84822C134.757 4.30268 138.894 1.0204 143.504 1.53005C148.115 2.0397 151.434 6.14619 150.932 10.6917C150.429 15.2373 146.293 18.5196 141.682 18.0099Z" stroke="#B95F00"/>
<g filter="url(#filter1_i_3175_2024)">
<ellipse cx="6.96113" cy="162.421" rx="5.37031" ry="5.43092" transform="rotate(96.3079 6.96113 162.421)" fill="#CDEF80"/>
</g>
<path d="M6.42602 167.261C3.71396 166.962 1.76511 164.547 2.06006 161.879C2.35501 159.21 4.78418 157.28 7.49624 157.58C10.2083 157.88 12.1572 160.294 11.8622 162.962C11.5672 165.631 9.13808 167.561 6.42602 167.261Z" stroke="#B95F00"/>
<path d="M75.7051 87.4875C63.592 87.8437 57.9219 81.5025 56.8828 78.979L114.894 75.4635L122.91 83.0341C112.222 84.3701 87.8181 87.1312 75.7051 87.4875Z" fill="#C30DFF"/>
<path d="M63.2364 81.2528C50.1516 83.0009 43.9688 74.971 42.6328 71.8536L100.644 70.1195L115.667 78.5336C101.862 75.8616 76.9234 79.4243 63.2364 81.2528Z" fill="#FF2C52"/>
<path d="M22.2638 71.0574C13.4096 62.1507 46.7603 60.3694 62.7923 60.3694L101.044 73.284C75.1409 71.0574 28.5896 77.4206 22.2638 71.0574Z" fill="#F69E2E"/>
<g filter="url(#filter2_i_3175_2024)">
<path d="M144.754 69.2761C167.466 83.5267 205.268 93.4725 223.972 97.332L223.972 167.249C221.597 167.546 211.948 168.407 192.353 169.476C167.86 170.812 55.1911 138.303 54.3004 121.38C53.7613 111.137 93.8836 115.381 105.068 116.482C116.253 117.582 130.668 116.954 132.234 108.911C133.621 101.785 130.058 97.7773 107.346 79.964C84.6344 62.1508 23.9789 54.5327 18.1391 44.7356C11.9479 34.3489 31.8567 37.078 61.0287 40.7754C92.6521 44.7834 119.012 53.1238 144.754 69.2761Z" fill="#FFB824"/>
</g>
<path d="M144.488 69.6996C167.122 83.9008 204.628 93.8204 223.472 97.7391L223.472 166.805C220.501 167.14 210.879 167.965 192.326 168.977C186.281 169.307 174.711 167.542 160.684 164.416C146.679 161.296 130.286 156.833 114.629 151.799C98.9693 146.765 84.0621 141.165 73.022 135.773C67.4995 133.076 62.9651 130.441 59.7909 127.966C58.2038 126.728 56.9722 125.543 56.1277 124.423C55.2814 123.3 54.8483 122.276 54.7997 121.354C54.7425 120.267 55.2117 119.357 56.1825 118.573C57.1707 117.774 58.6597 117.127 60.561 116.622C64.3581 115.614 69.6205 115.218 75.2915 115.177C86.035 115.1 98.0996 116.294 104.093 116.888C104.42 116.92 104.73 116.951 105.019 116.979C110.631 117.531 117.087 117.654 122.355 116.615C127.576 115.586 131.877 113.358 132.724 109.006C133.081 107.173 133.127 105.5 132.603 103.744C132.082 101.996 131.01 100.208 129.206 98.1186C125.611 93.9548 118.999 88.4677 107.655 79.5706C101.916 75.0694 93.8088 71.2318 84.8233 67.8543C75.8309 64.4742 65.92 61.541 56.5531 58.863C54.9918 58.4166 53.446 57.9774 51.9221 57.5444C44.294 55.3771 37.2168 53.3664 31.5108 51.3956C28.0883 50.2135 25.1782 49.0521 22.9487 47.8883C20.6994 46.7141 19.2227 45.5769 18.5686 44.4796C17.8163 43.2175 17.5004 42.2176 17.5079 41.4365C17.5152 40.6868 17.8201 40.0942 18.4364 39.6073C19.0741 39.1034 20.0546 38.7083 21.3975 38.433C22.7334 38.1592 24.3864 38.012 26.3325 37.9739C33.8195 37.8271 45.3746 39.2932 59.201 41.0475C59.7853 41.1217 60.3736 41.1963 60.9659 41.2714C92.5315 45.2721 118.819 53.593 144.488 69.6996Z" stroke="#B95F00"/>
<path d="M21.6181 38.8516C24.1601 42.1034 31.6508 46.4158 37.6531 39.1037C35.8915 38.5822 27.0287 37.3226 21.6181 38.8516Z" fill="#FFD27C"/>
<path d="M23.9314 64.7756C26.3108 65.4177 31.7317 65.4454 35.9534 62.1035C34.4659 62.2198 28.2086 63.4037 23.9314 64.7756Z" fill="#FFD27C"/>
<ellipse cx="64.5978" cy="122.881" rx="9.35198" ry="6.67998" transform="rotate(10.1841 64.5978 122.881)" fill="#FFD27C"/>
<path opacity="0.4" d="M175.662 111.665C157.529 92.8315 208.257 94.7501 224.331 97.2873L224.328 97.2873V167.906C215.185 168.047 196.484 170.007 195.382 168.538C194.046 166.757 194.331 163.372 202.65 150.145C210.969 136.919 194.316 131.038 175.662 111.665Z" fill="#FFFAFF" stroke="#AD5900"/>
<defs>
<filter id="filter0_i_3175_2024" x="133.704" y="0.977905" width="17.7783" height="17.5842" filterUnits="userSpaceOnUse" color-interpolation-filters="sRGB">
<feFlood flood-opacity="0" result="BackgroundImageFix"/>
<feBlend mode="normal" in="SourceGraphic" in2="BackgroundImageFix" result="shape"/>
<feColorMatrix in="SourceAlpha" type="matrix" values="0 0 0 0 0 0 0 0 0 0 0 0 0 0 0 0 0 0 127 0" result="hardAlpha"/>
<feOffset dx="5" dy="-2"/>
<feComposite in2="hardAlpha" operator="arithmetic" k2="-1" k3="1"/>
<feColorMatrix type="matrix" values="0 0 0 0 0.858824 0 0 0 0 0.459137 0 0 0 0 0.0901961 0 0 0 1 0"/>
<feBlend mode="normal" in2="shape" result="effect1_innerShadow_3175_2024"/>
</filter>
<filter id="filter1_i_3175_2024" x="1.53027" y="157.049" width="10.8613" height="10.743" filterUnits="userSpaceOnUse" color-interpolation-filters="sRGB">
<feFlood flood-opacity="0" result="BackgroundImageFix"/>
<feBlend mode="normal" in="SourceGraphic" in2="BackgroundImageFix" result="shape"/>
<feColorMatrix in="SourceAlpha" type="matrix" values="0 0 0 0 0 0 0 0 0 0 0 0 0 0 0 0 0 0 127 0" result="hardAlpha"/>
<feOffset dx="2" dy="-2"/>
<feComposite in2="hardAlpha" operator="arithmetic" k2="-1" k3="1"/>
<feColorMatrix type="matrix" values="0 0 0 0 0.858824 0 0 0 0 0.459137 0 0 0 0 0.0901961 0 0 0 1 0"/>
<feBlend mode="normal" in2="shape" result="effect1_innerShadow_3175_2024"/>
</filter>
<filter id="filter2_i_3175_2024" x="17.0078" y="37.4637" width="206.964" height="132.052" filterUnits="userSpaceOnUse" color-interpolation-filters="sRGB">
<feFlood flood-opacity="0" result="BackgroundImageFix"/>
<feBlend mode="normal" in="SourceGraphic" in2="BackgroundImageFix" result="shape"/>
<feColorMatrix in="SourceAlpha" type="matrix" values="0 0 0 0 0 0 0 0 0 0 0 0 0 0 0 0 0 0 127 0" result="hardAlpha"/>
<feOffset dx="5" dy="-2"/>
<feComposite in2="hardAlpha" operator="arithmetic" k2="-1" k3="1"/>
<feColorMatrix type="matrix" values="0 0 0 0 0.858824 0 0 0 0 0.459137 0 0 0 0 0.0901961 0 0 0 1 0"/>
<feBlend mode="normal" in2="shape" result="effect1_innerShadow_3175_2024"/>
</filter>
</defs>
</svg>
